<?xml version="1.0" encoding="UTF-8" standalone="no"?>
<!-- Created with Inkscape (http://www.inkscape.org/) -->

<svg
   width="600"
   height="250"
   viewBox="0 0 158.75 66.145833"
   version="1.1"
   id="svg1"
   xml:space="preserve"
   inkscape:version="1.3.2 (091e20e, 2023-11-25, custom)"
   sodipodi:docname="actualizar.svg"
   xmlns:inkscape="http://www.inkscape.org/namespaces/inkscape"
   xmlns:sodipodi="http://sodipodi.sourceforge.net/DTD/sodipodi-0.dtd"
   xmlns:xlink="http://www.w3.org/1999/xlink"
   xmlns="http://www.w3.org/2000/svg"
   xmlns:svg="http://www.w3.org/2000/svg"><sodipodi:namedview
     id="namedview1"
     pagecolor="#ffffff"
     bordercolor="#000000"
     borderopacity="0.25"
     inkscape:showpageshadow="2"
     inkscape:pageopacity="0.0"
     inkscape:pagecheckerboard="0"
     inkscape:deskcolor="#d1d1d1"
     inkscape:document-units="mm"
     showgrid="false"
     inkscape:zoom="0.92470539"
     inkscape:cx="341.73046"
     inkscape:cy="226.55865"
     inkscape:window-width="1366"
     inkscape:window-height="715"
     inkscape:window-x="-8"
     inkscape:window-y="-8"
     inkscape:window-maximized="1"
     inkscape:current-layer="layer1" /><defs
     id="defs1"><linearGradient
       id="swatch1"
       inkscape:swatch="solid"><stop
         style="stop-color:#ffffff;stop-opacity:1;"
         offset="0"
         id="stop1" /></linearGradient><linearGradient
       inkscape:collect="always"
       xlink:href="#swatch1"
       id="linearGradient1"
       x1="147.45493"
       y1="37.475927"
       x2="190.13987"
       y2="37.475927"
       gradientUnits="userSpaceOnUse"
       gradientTransform="matrix(1.2424395,0,0,1.2329626,-124.61559,-12.593209)" /></defs><g
     inkscape:label="Capa 1"
     inkscape:groupmode="layer"
     id="layer1"><rect
       style="opacity:1;fill:#d2b48c;fill-opacity:1;stroke:#d2b48c;stroke-width:0;stroke-linecap:round;stroke-linejoin:round;stroke-dasharray:none;stroke-opacity:1"
       id="rect1"
       width="158.78621"
       height="66.248604"
       x="0"
       y="0.13289641"
       inkscape:export-filename="actualizar.png"
       inkscape:export-xdpi="96"
       inkscape:export-ydpi="96" /><path
       style="fill:#ffffff;stroke:url(#linearGradient1);stroke-width:1.23769"
       d="M 63.145704,62.397519 C 61.1333,62.091538 59.316481,60.35175 58.762713,58.200368 c -0.232659,-0.903884 -0.232659,-48.2538412 0,-49.1577249 0.568168,-2.2073711 2.358299,-3.8838502 4.488947,-4.203951 1.126979,-0.1693141 31.063383,-0.1674836 32.085712,0.00199 2.022344,0.3351897 3.748838,1.8846016 4.354783,3.9081357 0.212069,0.7081525 0.222355,1.3143122 0.222355,13.0970472 v 12.354528 l 0.55747,0.06747 c 0.30661,0.03711 0.6631,0.101201 0.7922,0.142424 0.19376,0.06187 0.27236,-0.02114 0.45047,-0.475694 0.23603,-0.602435 0.84065,-1.224947 1.44436,-1.487121 0.55095,-0.239254 1.64988,-0.207455 2.21286,0.06403 0.25821,0.124512 0.63786,0.411483 0.84368,0.637713 0.40843,0.448918 3.94461,8.030713 4.36223,9.352913 0.33637,1.064948 1.11185,6.732436 1.03912,7.594266 -0.032,0.3795 -0.18786,0.943935 -0.35365,1.280785 -0.53805,1.09334 -0.9623,1.393275 -4.36852,3.088456 -1.74126,0.866578 -3.3772,1.6357 -3.63539,1.709157 -0.7163,0.203792 -1.25436,0.16359 -2.25475,-0.168469 -0.50272,-0.166865 -0.95365,-0.304092 -1.00206,-0.304949 -0.0485,-8.56e-4 -0.08794,0.460125 -0.08794,1.024401 0,1.765179 -0.581396,3.152109 -1.802192,4.299069 -0.772723,0.725997 -1.793622,1.222494 -2.833619,1.378082 -1.010762,0.151219 -31.136241,0.146174 -32.132987,-0.0054 z M 92.847188,60.896 c 0.950503,-0.456194 1.897851,-1.494018 2.261923,-2.47795 0.22518,-0.608544 0.262863,-0.95727 0.274021,-2.535292 l 0.01293,-1.829692 -1.085607,-0.391016 -1.085605,-0.391018 v 0.891391 c 0,1.03936 -0.262863,1.579377 -0.941235,1.93361 -0.381988,0.199471 -1.312489,0.213288 -14.376379,0.213464 -13.401462,1.82e-4 -13.984551,-0.009 -14.3769,-0.22707 -0.22492,-0.124992 -0.514569,-0.413169 -0.643671,-0.640392 C 62.654275,55.033008 62.65194,54.809872 62.65194,32.990059 V 10.951216 l 0.241976,-0.336852 c 0.133091,-0.185269 0.387816,-0.450025 0.566069,-0.588348 0.323134,-0.2507433 0.366234,-0.2514952 14.428325,-0.2514952 13.356087,0 14.124734,0.011594 14.490845,0.2193855 0.212643,0.1206577 0.48972,0.3951167 0.615715,0.6098977 0.223354,0.38071 0.229106,0.709808 0.229541,13.111731 l 4.35e-4,12.721219 0.249158,0.513553 c 0.137029,0.282453 0.264665,0.53185 0.283625,0.554213 0.01901,0.02237 0.239181,-0.172109 0.489396,-0.432161 0.250203,-0.26005 0.625855,-0.546406 0.834758,-0.636344 l 0.379851,-0.163526 -0.0328,-13.370964 -0.0328,-13.3709631 -0.27402,-0.7056 C 94.737985,7.8360762 93.783542,6.7964358 92.847153,6.3470109 L 92.109877,5.9931567 H 77.556933 63.003991 l -0.737263,0.3538542 c -0.936402,0.4494249 -1.890832,1.4890653 -2.274857,2.477951 l -0.27402,0.7056 V 33.621506 57.71245 l 0.272355,0.700975 c 0.322501,0.830057 1.264331,1.950219 1.946169,2.314673 1.103212,0.589687 0.541394,0.570292 15.796599,0.545307 l 14.376901,-0.02355 z M 72.059126,59.380064 c -0.253868,-0.291554 -0.245009,-0.456024 0.0405,-0.752767 0.228148,-0.23712 0.391207,-0.243959 5.817163,-0.243959 3.623662,0 5.662083,0.04432 5.809436,0.126271 0.257284,0.143111 0.30933,0.715209 0.08623,0.947148 -0.10573,0.109828 -1.566007,0.146375 -5.849939,0.146375 -5.381824,0 -5.720228,-0.01279 -5.903327,-0.223068 z M 71.237588,8.2706668 C 70.709365,7.6640203 71.207526,7.273941 72.510393,7.273941 c 1.017607,0 1.467023,0.1862899 1.467023,0.6081016 0,0.4832513 -0.305976,0.6116939 -1.457221,0.6116939 -0.90534,0 -1.121028,-0.037506 -1.282607,-0.2230697 z m 4.236197,0.091324 C 75.218451,8.207419 75.207083,7.7210472 75.452795,7.4656282 c 0.161094,-0.1674293 0.740258,-0.1916826 4.577134,-0.1916826 4.236235,0 4.401069,0.00864 4.627442,0.2439588 0.282543,0.2936671 0.28714,0.3558553 0.05206,0.7047353 L 84.52673,8.4937399 80.10295,8.4900899 C 77.317199,8.4877601 75.603129,8.4403319 75.473791,8.362045 Z M 92.047107,54.853957 c 0.06684,-0.129767 0.121511,-0.618625 0.121511,-1.086349 v -0.850415 l -0.49879,-0.181073 c -0.274343,-0.09958 -1.271848,-0.456935 -2.216674,-0.794098 -2.096902,-0.748279 -2.396119,-0.904323 -2.687968,-1.401789 -0.638042,-1.0876 0.257111,-2.857192 1.90661,-3.769094 0.430058,-0.237755 0.680695,-0.278828 1.706914,-0.279737 0.661549,-5.86e-4 1.202892,-0.02541 1.202954,-0.05516 1.13e-4,-0.04634 -0.948031,-2.13559 -3.201704,-7.05494 l -0.51862,-1.132044 -0.457677,0.825593 c -0.662853,1.195704 -2.537558,3.105758 -3.80251,3.874216 -6.209402,3.77221 -14.09657,0.617193 -16.242498,-6.497307 -1.193177,-3.955791 -0.245978,-8.223897 2.501875,-11.273536 1.680002,-1.864499 3.746228,-3.037758 6.199102,-3.520004 1.098093,-0.21589 3.741222,-0.08108 4.842184,0.246979 2.967592,0.884244 5.56065,3.072246 6.91025,5.830798 0.186713,0.381626 0.324351,0.518412 0.521676,0.518412 0.35658,0 1.275189,0.615444 1.571436,1.052817 0.130369,0.192471 0.650169,1.255645 1.155109,2.362608 0.504953,1.106963 0.96089,2.064808 1.01321,2.128543 0.0523,0.06373 0.09517,-4.932835 0.09517,-11.103487 0,-9.956982 -0.02063,-11.249868 -0.182701,-11.490465 l -0.182713,-0.2711 H 77.925938 c -10.636985,0 -13.910204,0.03417 -14.018146,0.146377 -0.204878,0.212928 -0.204878,43.650885 0,43.863816 0.107962,0.112198 3.394766,0.146374 14.07936,0.146374 13.660486,0 13.940942,-0.0047 14.060017,-0.23594 z m 12.436613,-0.48416 c 5.5208,-2.695343 5.62867,-2.76842 5.94255,-4.026069 0.13059,-0.523252 0.0984,-0.927166 -0.30347,-3.80512 -0.24727,-1.770852 -0.55337,-3.521629 -0.68025,-3.890616 -0.47517,-1.382012 -3.75471,-8.359188 -4.10805,-8.739839 -0.93272,-1.004801 -2.56104,-0.384434 -2.69139,1.025376 -0.0505,0.546279 0.0341,0.781892 1.1905,3.312954 0.68465,1.498668 1.24486,2.816667 1.24486,2.928887 0,0.457657 -0.64688,0.679547 -0.93375,0.320292 -0.0776,-0.09707 -0.69325,-1.373281 -1.36832,-2.836022 -0.67508,-1.462742 -1.34431,-2.75543 -1.48717,-2.87264 -0.14289,-0.117206 -0.44989,-0.274378 -0.68224,-0.34926 -0.35746,-0.115195 -0.50599,-0.09775 -0.965124,0.113322 -0.329532,0.15151 -0.638601,0.408416 -0.787023,0.654208 -0.425051,0.703928 -0.288569,1.24305 1.053126,4.160086 0.661851,1.438952 1.184951,2.713717 1.162431,2.832811 -0.0576,0.30404 -0.36502,0.474817 -0.69762,0.387392 -0.233,-0.06124 -0.486974,-0.525674 -1.455853,-2.662173 -0.645484,-1.423394 -1.270705,-2.716568 -1.38937,-2.87372 -0.685491,-0.907853 -2.098306,-0.843428 -2.664374,0.121496 -0.427524,0.728733 -0.328426,1.128839 1.002325,4.047065 0.677764,1.486287 1.232302,2.791694 1.232302,2.900906 0,0.109219 -0.10909,0.27795 -0.242314,0.37497 -0.460621,0.33532 -0.694833,0.118981 -1.285577,-1.187481 -0.306311,-0.677439 -0.965002,-2.10996 -1.463754,-3.183379 -0.498752,-1.073419 -1.751231,-3.790513 -2.783288,-6.037984 -2.317547,-5.04686 -2.371122,-5.149967 -2.819444,-5.425213 -0.755975,-0.464136 -1.780614,-0.183259 -2.169237,0.594643 -0.421745,0.844219 -0.401308,0.900669 3.076044,8.493684 4.550373,9.936014 4.09933,8.864304 3.878262,9.214969 -0.233466,0.370316 -0.401245,0.369262 -1.471992,-0.0093 -1.048743,-0.370731 -1.868666,-0.386844 -2.581975,-0.05074 -0.653474,0.307913 -1.013223,0.649085 -1.302412,1.235181 -0.291104,0.589969 -0.281736,0.807873 0.04076,0.949025 0.145241,0.06357 2.270968,0.833766 4.723841,1.711555 2.452875,0.87779 5.489621,1.974639 6.748336,2.437442 2.9809,1.096021 3.06221,1.098172 5.03865,0.133238 z M 80.491028,43.077515 c 1.109474,-0.316254 2.778182,-1.213753 3.718473,-1.999929 0.932936,-0.780032 1.668012,-1.66586 2.345439,-2.826411 0.766772,-1.313626 0.786403,-1.124373 -0.383764,-3.700331 -0.572032,-1.259268 -1.098416,-2.514803 -1.169731,-2.790081 -0.15466,-0.596945 -0.05318,-1.43969 0.247033,-2.05128 0.239182,-0.487276 0.901986,-1.145184 1.279005,-1.269554 0.310921,-0.102575 0.308174,-0.123375 -0.118529,-0.89664 -0.510096,-0.924503 -2.000762,-2.498087 -3.03487,-3.20367 -4.879109,-3.3291 -11.551109,-1.495204 -14.259788,3.919513 -0.699655,1.398634 -1.007171,2.576782 -1.088576,4.1705 -0.117037,2.291842 0.392897,4.370464 1.507576,6.145166 1.540936,2.453332 3.608231,3.953113 6.380561,4.628956 0.927704,0.226161 3.599359,0.152475 4.577122,-0.126239 z m -3.872957,-3.376962 c -0.322748,-0.06304 -1.019757,-0.33154 -1.548911,-0.596655 -2.388329,-1.196581 -3.857924,-3.884941 -3.633316,-6.646504 0.03927,-0.483224 0.126493,-1.029042 0.193759,-1.212931 0.108216,-0.295752 0.09839,-0.324712 -0.08524,-0.25089 -0.76241,0.306531 -1.137477,0.130248 -1.066931,-0.501451 0.03367,-0.301941 0.145153,-0.382007 1.028751,-0.739254 1.56581,-0.633058 1.602822,-0.613784 2.190247,1.140517 0.374447,1.118265 0.311443,1.386353 -0.32583,1.386353 -0.273051,0 -0.374794,-0.07765 -0.496751,-0.379119 -0.15,-0.370783 -0.155007,-0.372794 -0.227466,-0.09149 -0.154299,0.599114 -0.07617,2.160235 0.145067,2.899099 0.54056,1.805142 1.929272,3.208408 3.696903,3.735651 1.038033,0.30962 2.613,0.209591 3.518104,-0.223441 0.845194,-0.404371 0.958256,-0.407483 1.194419,-0.03289 0.261732,0.415177 0.06101,0.753894 -0.629021,1.061301 -1.236899,0.551052 -2.630221,0.710228 -3.953754,0.45169 z m 6.130682,-2.93807 c -0.219664,-0.173463 -0.90805,-1.963254 -0.90805,-2.360881 0,-0.654269 0.767965,-0.708708 1.072038,-0.076 0.235306,0.489604 0.317568,0.334688 0.418429,-0.787981 0.08312,-0.925391 -0.118528,-2.066191 -0.524433,-2.965601 -0.396935,-0.879701 -1.64535,-2.177217 -2.49175,-2.589779 -1.40859,-0.686589 -3.025029,-0.740247 -4.372554,-0.145147 -0.402986,0.177971 -0.903937,0.350627 -1.113214,0.383682 -0.318686,0.05034 -0.397891,0.01337 -0.48762,-0.227588 -0.152733,-0.410165 0.07368,-0.713038 0.819873,-1.096638 1.265314,-0.650483 3.156455,-0.823025 4.523897,-0.412746 2.19103,0.657386 3.997312,2.546072 4.560946,4.76904 0.207586,0.818695 0.242461,2.70371 0.06187,3.343693 -0.168127,0.595811 -0.158696,0.619862 0.189013,0.482463 0.549033,-0.216958 1.066323,0.340778 0.768337,0.828433 -0.0774,0.12664 -2.050969,1.007519 -2.257315,1.007519 -0.03652,0 -0.153279,-0.06861 -0.25947,-0.152474 z"
       id="path1" /></g></svg>
