<?xml version="1.0" encoding="UTF-8" standalone="no"?>
<!-- Created with Inkscape (http://www.inkscape.org/) -->

<svg
   width="600"
   height="250"
   viewBox="0 0 158.75 66.145833"
   version="1.1"
   id="svg1"
   xml:space="preserve"
   inkscape:version="1.3.2 (091e20e, 2023-11-25, custom)"
   sodipodi:docname="actualiza1.svg"
   xmlns:inkscape="http://www.inkscape.org/namespaces/inkscape"
   xmlns:sodipodi="http://sodipodi.sourceforge.net/DTD/sodipodi-0.dtd"
   xmlns="http://www.w3.org/2000/svg"
   xmlns:svg="http://www.w3.org/2000/svg"><sodipodi:namedview
     id="namedview1"
     pagecolor="#ffffff"
     bordercolor="#000000"
     borderopacity="0.25"
     inkscape:showpageshadow="2"
     inkscape:pageopacity="0.0"
     inkscape:pagecheckerboard="0"
     inkscape:deskcolor="#d1d1d1"
     inkscape:document-units="mm"
     showgrid="false"
     inkscape:zoom="0.46235269"
     inkscape:cx="525.5728"
     inkscape:cy="524.49137"
     inkscape:window-width="1366"
     inkscape:window-height="715"
     inkscape:window-x="-8"
     inkscape:window-y="-8"
     inkscape:window-maximized="1"
     inkscape:current-layer="layer1" /><defs
     id="defs1" /><g
     inkscape:label="Capa 1"
     inkscape:groupmode="layer"
     id="layer1"><rect
       style="opacity:1;fill:#d2b48c;fill-opacity:1;stroke:#d2b48c;stroke-width:0;stroke-linecap:round;stroke-linejoin:round;stroke-dasharray:none;stroke-opacity:1"
       id="rect1"
       width="158.7515"
       height="65.780495"
       x="0"
       y="0.33521888"
       inkscape:export-filename="actualiza1.png"
       inkscape:export-xdpi="96"
       inkscape:export-ydpi="96" /><path
       style="fill:#ffffff;fill-opacity:1;stroke-width:0.459788"
       d="m 76.696646,61.777635 c -0.655058,-0.324631 -0.733534,-0.646596 -0.733534,-3.009418 v -2.156612 h -1.508691 c -1.356603,0 -1.552293,-0.02661 -1.941222,-0.263903 -0.704232,-0.429686 -0.87763,-0.888052 -0.877858,-2.320555 -3.47e-4,-2.189562 0.420787,-2.646234 2.542975,-2.757575 l 1.222055,-0.06412 -3.240375,-8.37081 c -3.563781,-9.206274 -3.612768,-9.371374 -3.09676,-10.436799 0.51736,-1.068219 10.6355,-18.405209 10.895305,-18.668632 0.414006,-0.419767 0.895005,-0.599321 1.605468,-0.599321 0.710469,0 1.191468,0.179554 1.605474,0.599321 0.259805,0.263423 10.377945,17.600413 10.895306,18.668632 0.505415,1.04354 0.420183,1.34436 -2.572722,9.08043 -2.950997,7.627776 -2.933992,7.594364 -3.673535,7.216986 -0.211862,-0.108108 -0.350504,-0.290178 -0.376421,-0.49433 -0.02545,-0.200438 0.961132,-2.914561 2.597706,-7.146396 1.451305,-3.75277 2.682174,-6.99811 2.735263,-7.211862 0.0546,-0.219854 0.0391,-0.539251 -0.03583,-0.735434 -0.131294,-0.34399 -10.192471,-17.723373 -10.336444,-17.854865 -0.04126,-0.03771 -0.07504,2.151401 -0.07504,4.864656 v 4.933191 l 0.616392,0.199953 c 0.845474,0.274261 1.715204,1.006085 2.141551,1.801992 0.659179,1.230544 0.399312,2.821335 -0.645114,3.949148 -0.190545,0.205749 -0.709531,0.537349 -1.153302,0.736892 -0.676955,0.304376 -0.954425,0.362791 -1.723283,0.362791 -0.768858,0 -1.046329,-0.05842 -1.723283,-0.362791 -0.443772,-0.199543 -0.962757,-0.531143 -1.153303,-0.736892 -0.460158,-0.496903 -0.903782,-1.410108 -1.009212,-2.077474 -0.07221,-0.457094 -0.04404,-0.578516 0.181731,-0.784768 0.32529,-0.2971 0.795968,-0.315117 1.059256,-0.04054 0.107301,0.111903 0.233547,0.447644 0.28054,0.746099 0.302943,1.923998 3.038829,2.565343 4.278081,1.002875 0.647602,-0.81652 0.607905,-1.895086 -0.09796,-2.66126 -0.378713,-0.411067 -1.194958,-0.796086 -1.696044,-0.800013 -0.179155,-0.0011 -0.436922,-0.07679 -0.572821,-0.167512 -0.236877,-0.158126 -0.249725,-0.389999 -0.310738,-5.606144 l -0.06365,-5.441195 -5.203635,8.948656 c -4.401553,7.569315 -5.202857,9.020344 -5.198558,9.413708 0.0031,0.302509 1.143519,3.401175 3.262414,8.865949 1.791535,4.620498 3.257342,8.503301 3.257342,8.628454 0,0.222562 0.145653,0.22827 6.651066,0.26056 6.146103,0.03048 6.683236,0.04904 7.074771,0.24418 0.681952,0.339878 0.906802,0.948492 0.909879,2.46284 0.0031,1.466754 -0.165233,1.918874 -0.875061,2.351973 -0.388923,0.237303 -0.584613,0.263908 -1.941216,0.263908 h -1.508691 v 2.156606 c 0,2.381949 -0.07846,2.693348 -0.759593,3.015052 -0.548362,0.258998 -9.184802,0.253984 -9.708674,-0.0058 z M 85.637394,58.58805 V 56.611605 H 81.564009 77.49063 v 1.976445 1.976439 h 4.073379 4.073385 z M 52.923059,37.884137 c -0.708511,-0.292926 -1.213686,-0.720865 -1.567222,-1.3276 -0.379608,-0.651506 -0.378416,-1.906827 0.0025,-2.565679 0.347885,-0.601807 1.143599,-1.260826 1.739077,-1.440317 0.425507,-0.128263 0.462166,-0.175013 0.462166,-0.589383 0,-0.247546 0.08759,-1.067491 0.194652,-1.822103 C 54.826144,22.58354 59.350923,16.038574 66.416187,11.82387 67.9084,10.933712 70.066863,9.9275693 71.585592,9.4142283 l 1.004314,-0.339467 -5.326133,-0.03609 -5.326118,-0.03609 -0.183245,0.400657 c -0.728957,1.5938607 -2.742885,2.2601447 -4.376704,1.4479677 -2.238248,-1.1126317 -2.201953,-3.9805297 0.06432,-5.0820677 0.717863,-0.348923 2.087492,-0.345701 2.818599,0.0067 0.635694,0.306349 1.40181,1.093743 1.512651,1.554649 l 0.08059,0.335152 h 8.303089 8.30309 l 0.231916,-0.480096 c 0.482821,-0.999492 1.694512,-1.72887 2.872114,-1.72887 1.159979,0 2.396636,0.744577 2.872378,1.729419 l 0.231652,0.479547 h 8.303089 8.303086 l 0.0806,-0.335152 c 0.11085,-0.460906 0.87697,-1.2483 1.51266,-1.554649 0.7311,-0.352334 2.10073,-0.3555619 2.8186,-0.0067 2.90506,1.412028 1.87934,5.4133397 -1.3877,5.4133397 -1.33159,0 -2.41139,-0.656892 -2.9247,-1.7792397 l -0.18325,-0.400657 -5.326112,0.03609 -5.326133,0.03609 1.004314,0.339467 c 1.586883,0.536382 3.70193,1.5326127 5.360345,2.5248277 7.296016,4.365156 11.937586,11.529338 12.613706,19.469073 l 0.0863,1.013449 0.445,0.134134 c 0.24474,0.07377 0.67078,0.320438 0.94675,0.548152 1.70036,1.403036 1.37191,3.76399 -0.65419,4.702482 -1.53746,0.712148 -3.30473,0.198015 -4.14055,-1.204546 -0.83015,-1.393076 -0.19448,-3.253212 1.3257,-3.879305 0.48151,-0.19831 0.51545,-0.243855 0.51545,-0.691789 0,-1.384533 -0.56478,-4.157013 -1.23226,-6.049121 -1.30724,-3.705695 -3.456,-6.905403 -6.52832,-9.721283 -4.110567,-3.767465 -9.344031,-6.15289 -15.163842,-6.9117067 -0.563551,-0.07347 -0.590277,-0.06339 -0.746814,0.281762 -0.202323,0.4461297 -1.030762,1.1403067 -1.636901,1.3716187 -0.587467,0.224187 -1.750232,0.224187 -2.337699,0 -0.603149,-0.230172 -1.43425,-0.924778 -1.634307,-1.3658977 -0.153399,-0.338241 -0.183084,-0.349322 -0.746808,-0.278692 -3.699569,0.463503 -7.72564,1.8202397 -10.77051,3.6295307 -6.705404,3.9844 -11.041224,10.32382 -12.023166,17.579112 -0.07333,0.541842 -0.133331,1.200948 -0.133331,1.464677 0,0.447934 0.03391,0.493479 0.515441,0.691789 1.504547,0.619656 2.122032,2.366467 1.34759,3.812192 -0.728999,1.360884 -2.535297,1.966173 -4.027016,1.34945 z"
       id="path1" /></g></svg>
