<?xml version="1.0" encoding="UTF-8" standalone="no"?>
<!-- Created with Inkscape (http://www.inkscape.org/) -->

<svg
   width="600"
   height="250"
   viewBox="0 0 158.75 66.145833"
   version="1.1"
   id="svg1"
   xml:space="preserve"
   xmlns="http://www.w3.org/2000/svg"
   xmlns:svg="http://www.w3.org/2000/svg"><defs
     id="defs1" /><g
     id="layer1"><rect
       style="fill:#d2b48c;stroke:#d2b48c;stroke-width:0.127;stroke-linecap:round;stroke-linejoin:round"
       id="rect1"
       width="157.9422"
       height="66.953758"
       x="0.57225436"
       y="-0.57225436" /><path
       style="fill:#ffffff;stroke-width:0.56774"
       d="m 93.842581,63.890542 c -2.780352,-0.438634 -5.39967,-1.782012 -7.301577,-3.744791 -1.533112,-1.582175 -2.653288,-3.575712 -3.227581,-5.744037 -0.282755,-1.067569 -0.323955,-1.461253 -0.326492,-3.119875 -0.0031,-1.67524 0.03542,-2.041951 0.323127,-3.122753 0.344346,-1.293373 1.152361,-3.107888 1.814528,-4.074786 0.637176,-0.930391 2.360188,-2.649221 3.268139,-3.260203 1.223532,-0.823347 2.707116,-1.498815 4.09643,-1.865092 1.015939,-0.267843 1.508057,-0.324425 2.930356,-0.336886 2.48603,-0.02178 4.07228,0.352675 6.118239,1.44429 1.29455,0.690711 2.20212,1.391527 3.28333,2.535365 1.49662,1.583325 2.49942,3.397864 3.07125,5.557312 0.2845,1.074418 0.32426,1.457402 0.32426,3.122753 0,1.658381 -0.0406,2.052829 -0.32141,3.122753 -0.3808,1.450898 -1.29168,3.361614 -2.13084,4.469814 -2.37527,3.136814 -5.875389,4.965076 -9.734338,5.084663 -0.805842,0.02492 -1.790184,-0.0056 -2.187421,-0.06849 z m 3.896799,-2.063981 c 2.11653,-0.440337 3.90472,-1.409535 5.43807,-2.947436 4.23273,-4.245304 4.20997,-11.038224 -0.0511,-15.25395 -4.2119,-4.16708 -10.910796,-4.140735 -15.098471,0.05941 -2.572349,2.579984 -3.668307,6.212544 -2.93871,9.740349 1.206134,5.83198 6.882101,9.601677 12.65021,8.401659 z m -6.731682,-6.890439 c -1.225984,-1.223124 -2.294722,-2.382857 -2.374988,-2.577203 -0.178803,-0.432958 -0.02296,-0.846837 0.431254,-1.145335 0.539295,-0.354412 0.874724,-0.142732 2.785548,1.757861 l 1.802318,1.792664 3.875241,-3.876131 c 2.543819,-2.544394 3.990919,-3.904575 4.211909,-3.95893 0.68866,-0.169375 1.35076,0.605332 1.07924,1.262791 -0.0795,0.192465 -2.0807,2.289029 -4.447147,4.659031 -3.969696,3.975667 -4.334788,4.309088 -4.71847,4.309088 -0.37598,0 -0.629613,-0.213255 -2.644905,-2.223836 z m -37.55993,5.029947 C 52.088751,59.64482 50.873354,58.64664 50.215392,57.31139 L 49.754793,56.376664 V 35.606845 14.837035 l 0.455999,-0.925399 c 0.549216,-1.114559 1.256241,-1.808814 2.39138,-2.348191 l 0.815569,-0.387526 3.007501,-0.03988 3.007493,-0.03988 0.05327,-1.490862 c 0.04671,-1.3081744 0.09254,-1.5675113 0.373961,-2.1163253 0.471588,-0.9196824 0.842905,-1.3060268 1.701577,-1.7704345 0.702656,-0.3800255 0.859414,-0.4161147 1.807228,-0.4161147 0.947629,0 1.104649,0.036178 1.806509,0.4157368 0.837925,0.4531926 1.348485,1.0113807 1.762835,1.9273086 0.213423,0.4717556 0.277272,0.8825648 0.315541,2.0303433 l 0.04802,1.4389108 h 3.879541 3.879542 l 0.05351,-1.5001475 c 0.04702,-1.3179498 0.0925,-1.576113 0.374271,-2.1256028 0.471587,-0.9196824 0.842912,-1.3060268 1.701576,-1.7704345 0.702648,-0.3800255 0.859414,-0.4161147 1.807228,-0.4161147 0.947621,0 1.104642,0.036178 1.806509,0.4157368 0.837918,0.4531926 1.348478,1.0113807 1.762842,1.9273086 0.213416,0.4717556 0.277257,0.8825648 0.315534,2.0303433 l 0.04802,1.4389108 h 3.87955 3.879534 l 0.05351,-1.5001475 c 0.04702,-1.3179498 0.09251,-1.576113 0.37428,-2.1256028 0.471579,-0.9196824 0.842904,-1.3060268 1.701576,-1.7704345 0.702648,-0.3800255 0.859413,-0.4161147 1.80722,-0.4161147 0.94762,0 1.104647,0.036178 1.806508,0.4157368 0.837924,0.4531926 1.348484,1.0113807 1.762842,1.9273086 0.213068,0.4709758 0.277272,0.8825648 0.315262,2.0210414 l 0.04771,1.4296167 3.016189,0.03988 3.01618,0.03988 0.92214,0.457357 c 1.11072,0.55088 1.80315,1.260395 2.34073,2.398477 l 0.38638,0.817992 0.0331,13.504266 0.0331,13.504273 -0.30229,0.303185 c -0.39912,0.400309 -0.95918,0.401386 -1.35678,0.0032 l -0.29969,-0.30058 V 33.347234 24.830636 H 78.997369 51.647375 v 15.385243 c 0,11.721611 0.03534,15.505272 0.148484,15.889293 0.09355,0.317567 0.375879,0.732122 0.763118,1.120501 0.387231,0.388386 0.800553,0.671552 1.117184,0.765381 0.381818,0.113155 3.881073,0.148931 14.565759,0.148931 h 14.063171 l 0.29969,0.300579 c 0.188918,0.189482 0.299704,0.440507 0.299704,0.67911 0,0.238595 -0.110786,0.489619 -0.299704,0.679094 l -0.29969,0.300595 -14.199467,-0.0123 C 60.295921,60.080563 53.6999,60.026043 53.447798,59.966415 Z M 106.3473,19.241921 c 0,-2.449424 -0.0472,-3.786942 -0.14514,-4.114903 -0.0798,-0.267256 -0.38268,-0.750878 -0.67299,-1.074724 -0.80616,-0.89931 -1.15461,-0.978241 -4.31888,-0.978241 h -2.651551 l -0.04624,1.438918 c -0.03959,1.232217 -0.09179,1.537186 -0.363259,2.123046 -0.66653,1.438469 -1.943588,2.254571 -3.523341,2.251589 -1.531217,-0.0032 -2.711531,-0.706983 -3.423637,-2.042297 -0.389728,-0.730803 -0.4138,-0.849105 -0.46206,-2.271108 l -0.05088,-1.500148 h -3.879547 -3.879541 l -0.04624,1.438918 c -0.03959,1.232217 -0.0918,1.537186 -0.363261,2.123046 -0.666528,1.438469 -1.943586,2.254571 -3.523333,2.251589 -1.531225,-0.0032 -2.711539,-0.706983 -3.423645,-2.042297 -0.389729,-0.730803 -0.413801,-0.849105 -0.462069,-2.271108 l -0.05088,-1.500148 h -3.87955 -3.879541 l -0.04624,1.438918 c -0.03959,1.232217 -0.0918,1.537186 -0.363252,2.123046 -0.666545,1.438469 -1.943595,2.254571 -3.52335,2.251589 -1.531225,-0.0032 -2.711538,-0.706983 -3.423644,-2.042297 -0.389721,-0.730803 -0.413785,-0.849105 -0.462053,-2.271108 l -0.05088,-1.500148 H 56.80557 c -1.705458,0 -2.802994,0.05225 -3.129291,0.14893 -0.670666,0.198744 -1.682143,1.213228 -1.880302,1.88589 -0.101933,0.346027 -0.148484,1.641731 -0.148484,4.133048 v 3.629006 H 78.997485 106.34747 Z M 64.438654,16.66557 c 0.175517,-0.131436 0.432413,-0.391151 0.570867,-0.57716 0.241107,-0.323887 0.251739,-0.492651 0.251739,-3.994039 0,-3.5013956 -0.01067,-3.67016 -0.251739,-3.9940455 C 64.53116,7.4576993 64.140913,7.2571707 63.36874,7.2571707 c -0.772026,0 -1.162127,0.2003919 -1.640782,0.8428731 -0.237417,0.3186846 -0.253864,0.5272044 -0.289056,3.6662612 -0.02057,1.830594 -0.0046,3.505833 0.03542,3.722746 0.09014,0.488977 0.601141,1.113643 1.094767,1.338281 0.494159,0.22488 1.465496,0.140836 1.8696,-0.161762 z m 15.628567,0 c 0.175517,-0.131436 0.432406,-0.391151 0.570867,-0.57716 0.241107,-0.323887 0.251747,-0.492651 0.251747,-3.994039 0,-3.5013956 -0.01067,-3.67016 -0.251747,-3.9940455 -0.478361,-0.6426262 -0.868608,-0.8431548 -1.640781,-0.8431548 -0.772026,0 -1.162127,0.2003919 -1.640782,0.8428731 -0.237425,0.3186846 -0.253857,0.5272044 -0.289064,3.6662612 -0.02057,1.830594 -0.0046,3.505833 0.03542,3.722746 0.09014,0.488977 0.60115,1.113643 1.094775,1.338281 0.494167,0.22488 1.465496,0.140836 1.869601,-0.161762 z m 15.628565,0 c 0.175517,-0.131436 0.432413,-0.391151 0.570868,-0.57716 0.241106,-0.323887 0.251746,-0.492651 0.251746,-3.994039 0,-3.5013956 -0.01067,-3.67016 -0.251746,-3.9940455 -0.478362,-0.6426262 -0.868609,-0.8431548 -1.64078,-0.8431548 -0.772026,0 -1.162127,0.2003919 -1.640782,0.8428731 -0.237417,0.3186846 -0.253857,0.5272044 -0.289057,3.6662612 -0.02057,1.830594 -0.0046,3.505833 0.03542,3.722746 0.09014,0.488977 0.601141,1.113643 1.094766,1.338281 0.494159,0.22488 1.465495,0.140836 1.869599,-0.161762 z M 58.628842,54.014952 c -0.222974,-0.110205 -0.552643,-0.393974 -0.73259,-0.6306 -0.326445,-0.429267 -0.327172,-0.435087 -0.327172,-2.604465 0,-2.004954 0.01957,-2.200554 0.251739,-2.512405 0.610351,-0.819929 0.686511,-0.839553 3.41718,-0.880755 2.809241,-0.04237 3.093,0.01985 3.694381,0.810675 0.328409,0.43184 0.32888,0.435571 0.32888,2.594592 0,2.159023 -4.71e-4,2.162754 -0.32888,2.594593 -0.581484,0.764642 -0.879209,0.834658 -3.535667,0.831522 -1.93676,-0.0024 -2.435512,-0.03883 -2.767871,-0.203157 z M 63.36874,50.791994 V 49.322469 H 61.415171 59.4616 v 1.469525 1.469535 h 1.953571 1.953569 z m 6.981529,3.222958 c -0.222981,-0.110205 -0.552643,-0.393974 -0.73259,-0.6306 -0.326445,-0.429267 -0.327179,-0.435087 -0.327179,-2.604465 0,-2.004954 0.01957,-2.200554 0.251738,-2.512405 0.610351,-0.819929 0.686519,-0.839553 3.417188,-0.880755 2.809241,-0.04237 3.093,0.01985 3.694381,0.810675 0.328409,0.43184 0.32888,0.435571 0.32888,2.594592 0,2.159023 -4.71e-4,2.162754 -0.32888,2.594593 -0.581493,0.764642 -0.879209,0.834658 -3.53566,0.831522 -1.936774,-0.0024 -2.435519,-0.03883 -2.767878,-0.203157 z m 4.739898,-3.222958 V 49.322469 H 73.136598 71.18302 v 1.469525 1.469535 h 1.953578 1.953569 z m -16.461325,-5.59422 c -0.222974,-0.110205 -0.552643,-0.393983 -0.73259,-0.6306 -0.326445,-0.429267 -0.327172,-0.435096 -0.327172,-2.604464 0,-2.004962 0.01957,-2.200555 0.251739,-2.512414 0.610351,-0.81992 0.686511,-0.839552 3.41718,-0.880755 2.809241,-0.04237 3.093,0.01985 3.694381,0.810684 0.328409,0.431839 0.32888,0.435562 0.32888,2.594592 0,2.159022 -4.71e-4,2.162752 -0.32888,2.594592 -0.581484,0.764634 -0.879209,0.834657 -3.535667,0.831522 -1.93676,-0.0024 -2.435512,-0.03883 -2.767871,-0.203157 z M 63.36874,41.974817 V 40.505283 H 61.415171 59.4616 v 1.469534 1.469525 h 1.953571 1.953569 z m 6.981529,3.222957 c -0.222981,-0.110205 -0.552643,-0.393983 -0.73259,-0.6306 C 69.291234,44.137907 69.2905,44.132078 69.2905,41.96271 c 0,-2.004962 0.01957,-2.200555 0.251738,-2.512414 0.610351,-0.81992 0.686519,-0.839552 3.417188,-0.880755 2.809241,-0.04237 3.093,0.01985 3.694381,0.810684 0.328409,0.431839 0.32888,0.435562 0.32888,2.594592 0,2.159022 -4.71e-4,2.162752 -0.32888,2.594592 -0.581493,0.764634 -0.879209,0.834657 -3.53566,0.831522 -1.936774,-0.0024 -2.435519,-0.03883 -2.767878,-0.203157 z m 4.739898,-3.222957 V 40.505283 H 73.136598 71.18302 v 1.469534 1.469525 h 1.953578 1.953569 z m 6.981529,3.222957 c -0.222974,-0.110205 -0.552643,-0.393983 -0.73259,-0.6306 -0.326452,-0.429267 -0.327179,-0.435096 -0.327179,-2.604464 0,-2.004962 0.01957,-2.200555 0.251746,-2.512414 0.610382,-0.819969 0.686371,-0.839552 3.418355,-0.880764 l 2.493019,-0.03762 0.306664,0.307574 c 0.403548,0.404755 0.406408,0.964575 0.0069,1.365197 -0.295412,0.296295 -0.330256,0.300588 -2.44196,0.300588 h -2.142272 v 1.469526 c 0,1.243817 0.029,1.469533 0.188702,1.469533 0.328718,0 0.788087,0.571036 0.788087,0.979682 0,0.830299 -0.908841,1.218903 -1.809547,0.773741 z M 58.628842,36.380588 c -0.222974,-0.110205 -0.552643,-0.393974 -0.73259,-0.6306 -0.326445,-0.429266 -0.327172,-0.435087 -0.327172,-2.604456 0,-2.004963 0.01957,-2.200563 0.251739,-2.512413 0.610351,-0.819921 0.686511,-0.839562 3.41718,-0.880756 2.809241,-0.04237 3.093,0.01985 3.694381,0.810684 0.328409,0.43184 0.32888,0.435562 0.32888,2.594584 0,2.15903 -4.71e-4,2.162753 -0.32888,2.594593 -0.581484,0.764641 -0.879209,0.834657 -3.535667,0.831521 -1.93676,-0.0024 -2.435512,-0.03891 -2.767871,-0.203157 z M 63.36874,33.157631 V 31.688097 H 61.415171 59.4616 v 1.469534 1.469534 h 1.953571 1.953569 z m 6.981529,3.222957 c -0.222981,-0.110205 -0.552643,-0.393974 -0.73259,-0.6306 -0.326445,-0.429266 -0.327179,-0.435087 -0.327179,-2.604456 0,-2.004963 0.01957,-2.200563 0.251738,-2.512413 0.610351,-0.819921 0.686519,-0.839562 3.417188,-0.880756 2.809241,-0.04237 3.093,0.01985 3.694381,0.810684 0.328409,0.43184 0.32888,0.435562 0.32888,2.594584 0,2.15903 -4.71e-4,2.162753 -0.32888,2.594593 -0.581493,0.764641 -0.879209,0.834657 -3.53566,0.831521 -1.936774,-0.0024 -2.435519,-0.03891 -2.767878,-0.203157 z m 4.739898,-3.222957 V 31.688097 H 73.136598 71.18302 v 1.469534 1.469534 h 1.953578 1.953569 z m 6.981529,3.222957 c -0.222974,-0.110205 -0.552643,-0.393974 -0.73259,-0.6306 -0.326452,-0.429266 -0.327179,-0.435087 -0.327179,-2.604456 0,-2.004963 0.01957,-2.200563 0.251746,-2.512413 0.610343,-0.819921 0.686511,-0.839562 3.41718,-0.880756 2.809241,-0.04237 3.093,0.01985 3.694382,0.810684 0.328408,0.43184 0.328879,0.435562 0.328879,2.594584 0,2.15903 -4.71e-4,2.162753 -0.328879,2.594593 -0.581493,0.764641 -0.87921,0.834657 -3.535668,0.831521 -1.936767,-0.0024 -2.435512,-0.03891 -2.767871,-0.203157 z m 4.739898,-3.222957 v -1.469534 h -1.953569 -1.953571 v 1.469534 1.469534 h 1.953571 1.953569 z m 6.981529,3.222957 c -0.222981,-0.110205 -0.552643,-0.393974 -0.73259,-0.6306 -0.326445,-0.429266 -0.327179,-0.435087 -0.327179,-2.604456 0,-2.004963 0.01957,-2.200563 0.251738,-2.512413 0.610351,-0.819921 0.686519,-0.839562 3.417179,-0.880756 2.809248,-0.04237 3.093008,0.01985 3.694389,0.810684 0.3284,0.43184 0.32888,0.435562 0.32888,2.594584 0,2.15903 -4.8e-4,2.162753 -0.32888,2.594593 -0.581493,0.764641 -0.879217,0.834657 -3.535668,0.831521 -1.936765,-0.0024 -2.43551,-0.03891 -2.767869,-0.203157 z m 4.739896,-3.222957 v -1.469534 h -1.953577 -1.953568 v 1.469534 1.469534 h 1.953568 1.953577 z"
       id="path1" /></g></svg>
