<?xml version="1.0" encoding="UTF-8" standalone="no"?>
<!-- Created with Inkscape (http://www.inkscape.org/) -->

<svg
   width="64"
   height="64"
   viewBox="0 0 16.933333 16.933333"
   version="1.1"
   id="svg1"
   xml:space="preserve"
   inkscape:version="1.3.2 (091e20e, 2023-11-25, custom)"
   sodipodi:docname="diseño.svg"
   xmlns:inkscape="http://www.inkscape.org/namespaces/inkscape"
   xmlns:sodipodi="http://sodipodi.sourceforge.net/DTD/sodipodi-0.dtd"
   xmlns="http://www.w3.org/2000/svg"
   xmlns:svg="http://www.w3.org/2000/svg"><sodipodi:namedview
     id="namedview1"
     pagecolor="#ffffff"
     bordercolor="#000000"
     borderopacity="0.25"
     inkscape:showpageshadow="2"
     inkscape:pageopacity="0.0"
     inkscape:pagecheckerboard="0"
     inkscape:deskcolor="#d1d1d1"
     inkscape:document-units="mm"
     inkscape:zoom="2.6154618"
     inkscape:cx="54.674857"
     inkscape:cy="80.865261"
     inkscape:window-width="1366"
     inkscape:window-height="715"
     inkscape:window-x="-8"
     inkscape:window-y="-8"
     inkscape:window-maximized="1"
     inkscape:current-layer="layer1"
     showgrid="false" /><defs
     id="defs1" /><g
     inkscape:label="Capa 1"
     inkscape:groupmode="layer"
     id="layer1"><rect
       style="fill:none;fill-opacity:1;stroke:#ffffff;stroke-width:1;stroke-linecap:round;stroke-dasharray:none;stroke-opacity:1;stroke-linejoin:round"
       id="rect1"
       width="15.786577"
       height="15.780355"
       x="0.67645586"
       y="0.57643402" /><g
       id="g14"
       transform="translate(4.6e-7,-0.40464489)"
       style="stroke-width:1.3;stroke-dasharray:none"><path
         style="fill:#d0d0d0;fill-opacity:1;stroke-width:1.3;stroke-dasharray:none"
         d="m 6.757701,14.398944 v -0.545112 h 1.8976478 1.8976482 v 0.545112 0.545112 H 8.6553488 6.757701 Z m -0.1458166,-1.108834 0.1223102,-0.0099 0.0071,-0.375144 0.0071,-0.375143 -9.272e-4,0.382908 -9.271e-4,0.382907 -0.1284821,0.0021 -0.1284821,0.0021 z m 0.7438924,-6.36e-4 c 0.077224,-0.0051 0.1977807,-0.005 0.2679032,9.3e-5 0.070123,0.0051 0.00694,0.0093 -0.1404078,0.0092 -0.1473468,-5.1e-5 -0.2047197,-0.0043 -0.1274954,-0.0093 z m 3.2070222,-0.01445 c -0.0061,-0.01853 -0.008,-0.196669 -0.0042,-0.395856 l 0.0069,-0.362158 0.0049,0.381581 0.0049,0.381582 0.12837,0.0094 0.12837,0.0094 -0.129071,0.0049 c -0.08843,0.0034 -0.132572,-0.0057 -0.140192,-0.02879 z M 7.2488569,12.465093 v -0.272557 h 1.4064919 1.4064922 v 0.272557 0.272556 H 8.6553488 7.2488569 Z M 6.74405,12.075727 c 3.9e-5,-0.185598 0.0036,-0.258119 0.0079,-0.161157 0.00431,0.09696 0.00428,0.248815 -7.1e-5,0.337451 -0.00435,0.08864 -0.00787,0.0093 -0.00783,-0.176294 z m 3.817621,0 c 3.9e-5,-0.185598 0.0036,-0.258119 0.0079,-0.161157 0.0043,0.09696 0.0043,0.248815 -7.1e-5,0.337451 -0.0043,0.08864 -0.0079,0.0093 -0.0078,-0.176294 z M 8.465584,10.4965 C 8.2505599,10.413654 8.1023298,10.264088 8.011224,10.038044 7.9352239,9.8494797 7.9309822,9.5659612 8.001447,9.3845407 8.062482,9.2273984 8.2047151,9.0492237 8.3316005,8.9709589 L 8.4320961,8.9089718 V 7.5381246 c 0,-0.9150962 -0.00749,-1.3654676 -0.022518,-1.3546661 -0.012385,0.0089 0.027028,-0.059928 0.087583,-0.1529504 0.060556,-0.093022 0.1201669,-0.1900447 0.1324696,-0.2156053 0.012303,-0.025561 0.026475,-0.040731 0.031493,-0.033711 0.00502,0.00702 0.058515,0.094274 0.1188821,0.1938997 l 0.1097579,0.181137 -0.00732,1.3763272 -0.00732,1.3763272 0.1022322,0.062032 C 9.1052992,9.048544 9.2476576,9.2259617 9.3092506,9.3845407 9.4173964,9.6629758 9.3503274,10.058905 9.1569231,10.283777 8.9871659,10.481155 8.6750322,10.577198 8.465584,10.4965 Z M 5.5315738,9.9709867 c 0.00107,-0.030239 0.00636,-0.03639 0.013488,-0.015683 0.00645,0.018738 0.00566,0.041127 -0.00176,0.049752 -0.00742,0.0086 -0.012695,-0.00671 -0.011726,-0.034069 z M 5.3083211,7.8164945 c 0.00107,-0.030239 0.00636,-0.03639 0.013488,-0.015683 0.00645,0.018738 0.00566,0.041127 -0.00176,0.049752 -0.00742,0.00863 -0.012695,-0.00671 -0.011726,-0.03407 z m 6.6752549,0 c 0.0011,-0.030239 0.0064,-0.03639 0.01349,-0.015683 0.0064,0.018738 0.0057,0.041127 -0.0018,0.049752 -0.0074,0.00863 -0.0127,-0.00671 -0.01173,-0.03407 z M 5.3083211,7.7126636 c 0.00107,-0.030239 0.00636,-0.03639 0.013488,-0.015683 0.00645,0.018738 0.00566,0.041127 -0.00176,0.049752 -0.00742,0.00863 -0.012695,-0.00671 -0.011726,-0.03407 z m 6.6752549,0 c 0.0011,-0.030239 0.0064,-0.03639 0.01349,-0.015683 0.0064,0.018738 0.0057,0.041127 -0.0018,0.049752 -0.0074,0.00863 -0.0127,-0.00671 -0.01173,-0.03407 z M 5.3735344,4.0596422 c 0,-0.00447 0.032651,-0.042431 0.072557,-0.084363 l 0.072557,-0.07624 -0.065571,0.084363 c -0.061122,0.078638 -0.079543,0.096294 -0.079543,0.07624 z m 6.4163936,-0.1541134 -0.04253,-0.058405 0.05023,0.049449 c 0.04721,0.04647 0.06039,0.067361 0.04253,0.067361 -0.0042,0 -0.02684,-0.026282 -0.05023,-0.058405 z"
         id="path8" /><path
         style="fill:#b9b9b9;fill-opacity:1;stroke-width:1.3;stroke-dasharray:none"
         d="m 7.2348828,12.465093 c 5.03e-5,-0.157045 0.00373,-0.217943 0.00817,-0.135331 0.00444,0.08261 0.0044,0.211104 -9.16e-5,0.285535 -0.00449,0.07443 -0.00813,0.0068 -0.00808,-0.150204 z m 2.8353092,0 c 5e-5,-0.157045 0.0037,-0.217943 0.0082,-0.135331 0.0044,0.08261 0.0044,0.211104 -9.1e-5,0.285535 -0.0045,0.07443 -0.0081,0.0068 -0.0081,-0.150204 z m -3.330464,0 c 4.55e-4,-0.04283 0.00546,-0.05721 0.011119,-0.03195 0.00566,0.02526 0.00529,0.0603 -8.272e-4,0.07787 -0.00612,0.01757 -0.010747,-0.0031 -0.010292,-0.04592 z m 3.817621,0 c 4.55e-4,-0.04283 0.0055,-0.05721 0.01112,-0.03195 0.0057,0.02526 0.0053,0.0603 -8.27e-4,0.07787 -0.0061,0.01757 -0.01075,-0.0031 -0.01029,-0.04592 z m 1.32188,-8.4557333 -0.04253,-0.058405 0.05023,0.049449 c 0.04721,0.04647 0.0604,0.067361 0.04253,0.067361 -0.0042,0 -0.02684,-0.026282 -0.05023,-0.058405 z M 9.1241794,3.6685981 c 0,-0.00539 0.017581,-0.025832 0.039069,-0.045426 0.035409,-0.032288 0.036199,-0.03137 0.00843,0.0098 -0.029165,0.043239 -0.047498,0.05699 -0.047498,0.035626 z M 9.143657,2.4648744 c -0.02777,-0.04117 -0.02698,-0.042089 0.00843,-0.0098 0.037188,0.03391 0.049015,0.055227 0.03064,0.055227 -0.00464,0 -0.022217,-0.020442 -0.039069,-0.045426 z"
         id="path9" /><path
         style="fill:#a3a3a3;fill-opacity:1;stroke-width:1.3;stroke-dasharray:none"
         d="m 7.7009436,14.950553 c 0.5249228,-0.0039 1.3838875,-0.0039 1.9088104,0 0.524923,0.0039 0.09544,0.0071 -0.9544052,0.0071 -1.0498458,0 -1.4793281,-0.0032 -0.9544052,-0.0071 z M 4.3763195,8.537949 C 3.7895195,8.2940964 3.7372134,7.3731119 4.2907589,7.0314324 4.3875855,6.9716656 4.4290247,6.9624987 4.6033126,6.9622913 4.8352152,6.9620155 4.9646971,7.0188281 5.1056312,7.1826931 5.246717,7.3467345 5.295462,7.497099 5.2949676,7.7667422 5.2945972,7.9687464 5.2865498,8.0179259 5.235502,8.1301505 5.0702432,8.4934585 4.696327,8.6709324 4.3763195,8.537949 Z M 12.506458,8.549667 C 12.304979,8.472046 12.165279,8.3341566 12.068284,8.1171716 c -0.0433,-0.096871 -0.05228,-0.1566868 -0.0526,-0.3504294 -4.42e-4,-0.2696415 0.04833,-0.4200434 0.189381,-0.5840491 0.140934,-0.163865 0.270416,-0.2206776 0.502319,-0.2204018 0.174288,2.074e-4 0.215727,0.00937 0.312554,0.069141 0.143578,0.088624 0.263563,0.2342263 0.327862,0.3978592 0.07007,0.178313 0.07178,0.492501 0.0036,0.6650996 -0.112084,0.283832 -0.339174,0.4639089 -0.605828,0.4804086 -0.08677,0.00537 -0.187417,-0.00521 -0.239132,-0.025133 z M 2.9400802,3.0554129 V 2.2247653 H 3.6544887 4.3688973 V 3.0554129 3.8860605 H 3.6544887 2.9400802 Z m 5.538483,0.790747 C 8.3221186,3.7955313 8.2309952,3.7286042 8.1213932,3.5838305 7.9621804,3.3735256 7.913989,3.0591951 7.9966418,2.7701342 8.0528104,2.5736962 8.2400577,2.3555701 8.4099913,2.2886194 8.6842578,2.1805636 8.9483922,2.2498427 9.1482907,2.4822661 9.2932974,2.6508663 9.3518971,2.815823 9.3518971,3.0554129 c 0,0.2395898 -0.0586,0.4045466 -0.2036064,0.5731468 C 8.9633481,3.8435937 8.7174803,3.9234783 8.4785632,3.8461599 Z M 12.9418,3.0554129 V 2.2247653 h 0.714409 0.714408 V 3.0554129 3.8860605 H 13.656209 12.9418 Z"
         id="path10" /><path
         style="fill:#8c8c8c;fill-opacity:1;stroke-width:1.3;stroke-dasharray:none"
         d="m 6.276537,14.411923 c -8.5e-6,-0.471133 0.00301,-0.667531 0.00671,-0.436441 0.0037,0.231091 0.0037,0.616563 1.54e-5,0.856605 -0.00369,0.240043 -0.00671,0.05097 -0.00672,-0.420164 z m 4.755282,0 c -8e-6,-0.471133 0.003,-0.667531 0.0067,-0.436441 0.0037,0.231091 0.0037,0.616563 1.6e-5,0.856605 -0.0037,0.240043 -0.0067,0.05097 -0.0067,-0.420164 z M 5.7307387,4.4213725 c 0,-0.00539 0.017581,-0.025832 0.039069,-0.045426 0.035409,-0.032288 0.036199,-0.03137 0.00843,0.0098 -0.029165,0.043239 -0.047498,0.05699 -0.047499,0.035626 z m 5.7912863,-0.048605 -0.04253,-0.058405 0.05023,0.049449 c 0.04721,0.04647 0.06039,0.067361 0.04253,0.067361 -0.0042,0 -0.02684,-0.026282 -0.05023,-0.058405 z M 4.822479,3.321504 c 0.2556094,-0.00417 0.6675106,-0.00416 0.915336,1.22e-5 0.2478254,0.00417 0.03869,0.00758 -0.4647443,0.00758 -0.5034348,-6.7e-6 -0.7062011,-0.00342 -0.4505917,-0.00759 z m 3.1142752,0.00171 c 0.016116,-0.0075 0.035372,-0.00658 0.04279,0.00205 0.00742,0.00863 -0.00577,0.014761 -0.029302,0.013634 -0.026008,-0.00125 -0.031298,-0.0074 -0.013488,-0.015683 z m 1.4064919,0 c 0.016116,-0.0075 0.035372,-0.00658 0.04279,0.00205 0.00742,0.00863 -0.00577,0.014761 -0.029302,0.013634 -0.026008,-0.00125 -0.031298,-0.0074 -0.013488,-0.015683 z m 2.2437889,-0.00171 c 0.25561,-0.00417 0.667511,-0.00416 0.915336,1.22e-5 0.247826,0.00417 0.03869,0.00758 -0.464744,0.00758 -0.503435,-6.7e-6 -0.706201,-0.00342 -0.450592,-0.00759 z M 9.3491946,3.1181441 c 0.00107,-0.030239 0.00636,-0.03639 0.013488,-0.015683 0.00645,0.018738 0.00566,0.041127 -0.00176,0.049752 -0.00742,0.00863 -0.012695,-0.00671 -0.011726,-0.03407 z m 0,-0.1297887 c 0.00107,-0.030239 0.00636,-0.03639 0.013488,-0.015683 0.00645,0.018738 0.00566,0.041127 -0.00176,0.049752 -0.00742,0.00863 -0.012695,-0.00671 -0.011726,-0.034069 z m -4.0817052,-0.21198 c 0.500365,-0.00389 1.3191442,-0.00389 1.8195093,0 0.5003651,0.00389 0.090976,0.00708 -0.9097547,0.00708 -1.0007301,0 -1.4101197,-0.00319 -0.9097546,-0.00708 z m 4.9562096,0 c 0.500365,-0.00389 1.319144,-0.00389 1.819509,0 0.500365,0.00389 0.09098,0.00708 -0.909754,0.00708 -1.000731,0 -1.4101202,-0.00319 -0.909755,-0.00708 z"
         id="path11" /><path
         style="fill:#767676;fill-opacity:1;stroke-width:1.3;stroke-dasharray:none"
         d="m 6.7448587,14.398944 c 0,-0.30695 0.00323,-0.432521 0.00718,-0.279046 0.00395,0.153475 0.00395,0.404617 0,0.558092 -0.00395,0.153475 -0.00718,0.0279 -0.00718,-0.279046 z m 3.8176213,0 c 0,-0.30695 0.0032,-0.432521 0.0072,-0.279046 0.0039,0.153475 0.0039,0.404617 0,0.558092 -0.0039,0.153475 -0.0072,0.0279 -0.0072,-0.279046 z M 9.944633,13.316358 c 0.027628,-0.0062 0.072836,-0.0062 0.100464,0 0.02763,0.0062 0.005,0.01125 -0.050232,0.01125 -0.055255,0 -0.077859,-0.0051 -0.050232,-0.01125 z M 4.5433135,6.9313414 c 0.016116,-0.0075 0.035372,-0.00658 0.04279,0.00205 0.00742,0.00863 -0.00577,0.014761 -0.029302,0.013634 -0.026008,-0.00125 -0.031298,-0.0074 -0.013488,-0.015684 z m 0.087906,5.407e-4 c 0.015349,-0.0072 0.040465,-0.0072 0.055813,0 0.015349,0.0072 0.00279,0.013093 -0.027907,0.013093 -0.030697,0 -0.043255,-0.00589 -0.027907,-0.013093 z m 7.9924455,0 c 0.01535,-0.0072 0.04046,-0.0072 0.05581,0 0.01535,0.0072 0.0028,0.013093 -0.02791,0.013093 -0.0307,0 -0.04326,-0.00589 -0.02791,-0.013093 z m 0.113022,-5.407e-4 c 0.01612,-0.0075 0.03537,-0.00658 0.04279,0.00205 0.0074,0.00863 -0.0058,0.014761 -0.0293,0.013634 -0.02601,-0.00125 -0.0313,-0.0074 -0.01349,-0.015684 z M 11.599436,4.4636201 c -0.02777,-0.04117 -0.02698,-0.042089 0.0084,-0.0098 0.03719,0.03391 0.04901,0.055227 0.03064,0.055227 -0.0046,0 -0.02222,-0.020442 -0.03907,-0.045426 z M 11.44316,4.281916 c -0.02777,-0.04117 -0.02698,-0.042089 0.0084,-0.0098 0.03719,0.03391 0.04901,0.055226 0.03064,0.055226 -0.0046,0 -0.02222,-0.020442 -0.03907,-0.045426 z M 7.8353201,3.3229595 c 0.021722,-0.00658 0.051861,-0.00615 0.066976,9.619e-4 0.015115,0.00711 -0.00266,0.012495 -0.039494,0.011966 -0.036837,-5.29e-4 -0.049203,-0.00635 -0.027482,-0.012928 z m 1.585094,0 c 0.021722,-0.00658 0.051861,-0.00615 0.066976,9.619e-4 0.015115,0.00711 -0.00266,0.012495 -0.039494,0.011966 -0.036837,-5.29e-4 -0.049203,-0.00635 -0.027482,-0.012928 z"
         id="path12" /><path
         style="fill:#606060;fill-opacity:1;stroke-width:1.3;stroke-dasharray:none"
         d="m 6.3111956,13.428707 c 0,-0.0054 0.017581,-0.02583 0.039069,-0.04543 0.035409,-0.03229 0.036199,-0.03137 0.00843,0.0098 -0.029165,0.04324 -0.047498,0.05699 -0.047498,0.03562 z m 4.6408084,-0.03562 c -0.02777,-0.04117 -0.02698,-0.04209 0.0084,-0.0098 0.03719,0.03391 0.04901,0.05523 0.03064,0.05523 -0.0046,0 -0.02222,-0.02044 -0.03907,-0.04543 z m -1.587828,-0.07772 c 0.1013009,-0.0048 0.2670661,-0.0048 0.368367,0 0.1013009,0.0048 0.018418,0.0087 -0.1841835,0.0087 -0.2026018,0 -0.2854844,-0.0039 -0.1841835,-0.0087 z M 7.2059689,11.65824 c 0.00107,-0.03024 0.00636,-0.03639 0.013488,-0.01568 0.00645,0.01874 0.00566,0.04113 -0.00176,0.04975 -0.00742,0.0086 -0.012695,-0.0067 -0.011726,-0.03407 z M 5.6191123,4.5511612 c 0,-0.00539 0.017581,-0.025832 0.039069,-0.045426 0.035409,-0.032288 0.036199,-0.03137 0.00843,0.0098 -0.029165,0.043239 -0.047498,0.05699 -0.047499,0.035626 z M 11.978966,4.1521273 c -0.02777,-0.04117 -0.02698,-0.042089 0.0084,-0.0098 0.03719,0.03391 0.04902,0.055226 0.03064,0.055226 -0.0046,0 -0.02222,-0.020442 -0.03907,-0.045426 z m -6.6500822,-0.01629 c 0,-0.00539 0.017581,-0.025832 0.039069,-0.045426 0.035409,-0.032288 0.036199,-0.03137 0.00843,0.0098 -0.029165,0.043239 -0.047498,0.05699 -0.047499,0.035626 z m 0.2009275,-0.236798 c 0.028838,-0.035692 0.057457,-0.064894 0.063596,-0.064894 0.00614,0 -0.012433,0.029203 -0.041271,0.064894 -0.028838,0.035692 -0.057457,0.064894 -0.063596,0.064894 -0.00614,0 0.012433,-0.029203 0.041271,-0.064894 z"
         id="path13" /><path
         style="fill:#666666;fill-opacity:1;stroke-width:1.3;stroke-dasharray:none"
         d="m 6.4521331,15.486509 c -0.039134,-0.01316 -0.091877,-0.05457 -0.1172076,-0.09201 -0.044557,-0.06586 -0.046055,-0.09802 -0.046055,-0.988671 v -0.920594 l 0.075906,-0.08826 c 0.07207,-0.0838 0.083917,-0.08826 0.2344153,-0.08826 H 6.757701 V 12.518445 11.728171 L 6.166683,10.915555 C 5.5289189,10.038665 5.5113011,10.005994 5.5912512,9.8484408 5.6909874,9.6518966 8.4413606,5.1393081 8.5014479,5.0736269 c 0.088465,-0.096701 0.1970931,-0.096701 0.2852454,0 0.079348,0.087043 2.9041287,4.7424582 2.9346587,4.8365002 0.01194,0.036765 0.01522,0.096883 0.0073,0.1335959 -0.0079,0.03671 -0.275688,0.431208 -0.595028,0.876658 l -0.580619,0.809908 v 0.789215 0.789215 h 0.158509 c 0.150499,0 0.162346,0.0045 0.234415,0.08826 l 0.07591,0.08826 v 0.920594 c 0,0.888114 -0.0016,0.922977 -0.04567,0.988096 -0.02512,0.03713 -0.08288,0.07952 -0.12837,0.09421 -0.106016,0.03424 -4.2936606,0.03269 -4.3956579,-0.0016 z M 10.575322,14.411923 V 13.853832 H 8.6553488 6.7353757 v 0.558091 0.558091 h 1.9199731 1.9199732 z m -0.490184,-1.875447 c 5.35e-4,-0.43901 0.0091,-0.847055 0.01905,-0.906767 0.0151,-0.09065 0.109278,-0.235699 0.5708,-0.879075 L 11.227711,9.9801261 11.16295,9.872807 C 9.7648348,7.5559204 8.6684493,5.7550175 8.656049,5.7550175 c -0.00881,0 -0.07449,0.096368 -0.1459468,0.2141514 -0.5563394,0.9170263 -2.3944065,3.9584022 -2.4072485,3.9831776 -0.00997,0.019226 0.1961295,0.3240775 0.5394816,0.7979865 0.5416813,0.747653 0.5559616,0.770297 0.5697082,0.903367 0.00775,0.07507 0.014187,0.478039 0.014294,0.895485 l 1.94e-4,0.758994 0.9878931,0.007 c 0.5433412,0.0039 1.186309,0.0098 1.4288172,0.01325 l 0.4409242,0.0062 z M 4.3777743,6.9020262 c 0.0065,-0.038369 0.028068,-0.2040939 0.047937,-0.3682765 C 4.4755705,6.1217454 4.5144206,5.9127939 4.5946319,5.6252289 4.8320636,4.7740128 5.3491359,3.981965 5.9809392,3.5016926 6.0878522,3.4204214 6.175758,3.3451661 6.1762853,3.3344586 6.1768126,3.323751 5.770366,3.3149903 5.2730707,3.3149903 H 4.3688973 V 3.0554129 2.7958355 H 6.1605001 7.9521028 V 3.0528833 3.309931 L 7.7623381,3.3276038 C 7.0197603,3.3967603 6.3708154,3.7224079 5.8479376,4.2882709 5.4061221,4.7664076 5.0570227,5.4858671 4.9410084,6.1573625 4.9138567,6.3145181 4.8377279,6.8907439 4.8377279,6.9391027 c 0,0.00382 -0.067813,3.854e-4 -0.1506955,-0.00764 -0.082883,-0.00802 -0.1890299,-0.00223 -0.2358829,0.012868 -0.084784,0.027327 -0.085131,0.027126 -0.073375,-0.042306 z m 8.4747247,0.040305 c -0.04298,-0.013686 -0.145008,-0.018539 -0.226737,-0.010785 l -0.148599,0.014098 -0.02663,-0.2254156 C 12.372138,6.0565178 12.282557,5.6946979 12.086244,5.2488417 11.610605,4.1685957 10.696851,3.4585654 9.6270913,3.337964 L 9.3585947,3.3076946 V 3.051765 2.7958355 H 11.150197 12.9418 v 0.2595774 0.2595774 h -0.904173 c -0.497295,0 -0.904087,0.00876 -0.903982,0.019468 1.05e-4,0.010708 0.06792,0.068147 0.150695,0.1276433 0.746196,0.5363285 1.346988,1.5491291 1.537231,2.5914296 0.03452,0.1891093 0.124235,0.9008418 0.114587,0.90901 -0.003,0.00257 -0.04068,-0.00652 -0.08366,-0.02021 z"
         id="path14" /></g></g></svg>
