<?xml version="1.0" encoding="UTF-8" standalone="no"?>
<!-- Created with Inkscape (http://www.inkscape.org/) -->

<svg
   width="600"
   height="250"
   viewBox="0 0 158.75 66.145833"
   version="1.1"
   id="svg1"
   xml:space="preserve"
   inkscape:version="1.3.2 (091e20e, 2023-11-25, custom)"
   sodipodi:docname="flyer.svg"
   inkscape:export-filename="flyer.png"
   inkscape:export-xdpi="96"
   inkscape:export-ydpi="96"
   xmlns:inkscape="http://www.inkscape.org/namespaces/inkscape"
   xmlns:sodipodi="http://sodipodi.sourceforge.net/DTD/sodipodi-0.dtd"
   xmlns:xlink="http://www.w3.org/1999/xlink"
   xmlns="http://www.w3.org/2000/svg"
   xmlns:svg="http://www.w3.org/2000/svg"><sodipodi:namedview
     id="namedview1"
     pagecolor="#ffffff"
     bordercolor="#000000"
     borderopacity="0.25"
     inkscape:showpageshadow="2"
     inkscape:pageopacity="0.0"
     inkscape:pagecheckerboard="0"
     inkscape:deskcolor="#d1d1d1"
     inkscape:document-units="mm"
     showgrid="false"
     inkscape:zoom="0.65386545"
     inkscape:cx="544.45452"
     inkscape:cy="63.468715"
     inkscape:window-width="1366"
     inkscape:window-height="715"
     inkscape:window-x="-8"
     inkscape:window-y="-8"
     inkscape:window-maximized="1"
     inkscape:current-layer="layer1" /><defs
     id="defs1"><linearGradient
       id="swatch4"
       inkscape:swatch="solid"><stop
         style="stop-color:#d2b48c;stop-opacity:1;"
         offset="0"
         id="stop4" /></linearGradient><linearGradient
       inkscape:collect="always"
       xlink:href="#swatch4"
       id="linearGradient4"
       x1="48.861923"
       y1="83.817559"
       x2="93.667803"
       y2="83.817559"
       gradientUnits="userSpaceOnUse" /></defs><g
     inkscape:label="Capa 1"
     inkscape:groupmode="layer"
     id="layer1"><rect
       style="opacity:1;fill:#d2b48c;fill-opacity:1;stroke:#d2b48c;stroke-width:1.03954;stroke-linecap:round;stroke-linejoin:round;stroke-dasharray:none;stroke-opacity:1"
       id="rect1"
       width="157.4429"
       height="64.987"
       x="0.85048413"
       y="0.57873565" /><g
       id="g1"
       transform="translate(5.7225434,-51.50289)"
       style="stroke:url(#linearGradient4);fill:#ffffff;stroke-width:0;stroke-dasharray:none"><path
         style="fill:#ffffff;fill-opacity:1;stroke:url(#linearGradient4);stroke-width:0;stroke-dasharray:none"
         d="M 50.465712,86.865141 V 67.196582 l 5.443685,-2e-6 5.443685,-3e-6 -0.02828,17.016595 -0.02829,17.016598 0.249348,0.34033 c 0.137141,0.18719 0.308284,0.34066 0.380316,0.34104 0.07203,3.9e-4 0.27099,0.0546 0.442127,0.12048 0.171137,0.0659 0.336027,0.12563 0.366424,0.13277 0.343318,0.0807 0.972391,0.31213 1.094672,0.40276 0.08533,0.0632 0.159943,0.0961 0.165797,0.0729 0.01584,-0.0627 0.873151,0.20691 1.033063,0.32484 0.07599,0.0561 0.138164,0.0772 0.138164,0.047 0,-0.0462 1.019325,0.28633 1.823773,0.59487 0.121585,0.0466 0.245933,0.0907 0.276329,0.098 0.217751,0.0522 0.960183,0.29982 1.050051,0.35021 0.06079,0.0341 0.135401,0.0647 0.165798,0.0679 0.113687,0.0122 0.943771,0.28332 1.050051,0.34291 0.06079,0.0341 0.135401,0.0647 0.165797,0.0679 0.110497,0.0119 0.942451,0.28255 1.050051,0.3416 0.06079,0.0334 0.160271,0.0684 0.221063,0.0779 0.117212,0.0183 2.461324,0.81422 2.92909,0.99457 0.151981,0.0586 0.301198,0.11239 0.331595,0.11953 0.329895,0.0775 0.961968,0.30511 1.044524,0.37611 0.06043,0.052 -5.182428,0.0903 -12.351914,0.0903 h -12.45692 z m 22.971087,7.780154 c 2.208197,-0.01556 5.789423,-0.01555 7.95828,1.7e-5 2.168857,0.01557 0.36215,0.0283 -4.014905,0.02829 -4.377054,-9e-6 -6.151573,-0.01275 -3.943375,-0.0283 z m 4.19898,-19.199536 c 0.07979,-0.02967 0.175123,-0.02602 0.211852,0.0081 0.03673,0.03413 -0.02855,0.0584 -0.145073,0.05394 -0.128763,-0.0049 -0.154954,-0.02927 -0.06678,-0.06205 z"
         id="path4" /><path
         style="fill:#ffffff;fill-opacity:1;stroke:url(#linearGradient4);stroke-width:0;stroke-dasharray:none"
         d="m 57.180511,107.89459 c 4.270668,-0.0149 11.259033,-0.0149 15.5297,0 4.270668,0.0149 0.776485,0.0271 -7.76485,0.0271 -8.541335,0 -12.035517,-0.0122 -7.76485,-0.0271 z M 48.861923,86.813787 c 0,-11.269622 0.01292,-15.879922 0.02871,-10.245111 0.01579,5.634811 0.01579,14.855411 0,20.490222 -0.01579,5.634812 -0.02871,1.024511 -0.02871,-10.245111 z m 1.5474,0 c 0,-10.817707 0.01294,-15.243133 0.02875,-9.834279 0.01581,5.408853 0.01581,14.259705 0,19.668558 -0.01581,5.408854 -0.02875,0.983428 -0.02875,-9.834279 z M 93.62725,80.85673 c 0,-11.269622 0.01292,-15.879922 0.02871,-10.245111 0.01579,5.634811 0.01579,14.855411 0,20.490222 -0.01579,5.634811 -0.02871,1.024511 -0.02871,-10.245111 z m -1.574283,0.02606 -0.02735,-19.642503 -14.562548,-0.02644 -14.562548,-0.02644 14.566017,-0.02529 c 11.571211,-0.02009 14.576815,0.0011 14.618536,0.10309 0.02889,0.07061 0.03963,8.933018 0.02388,19.694236 l -0.02864,19.565857 z m -7.785288,-1.226004 c 0.07979,-0.02967 0.175124,-0.02602 0.211853,0.0081 0.03673,0.03413 -0.02855,0.0584 -0.145073,0.05394 -0.128763,-0.0049 -0.154955,-0.02927 -0.06678,-0.06205 z m -0.227971,-1.43577 c 0.07599,-0.02849 0.200338,-0.02849 0.276329,0 0.07599,0.02849 0.01382,0.0518 -0.138165,0.0518 -0.151981,0 -0.214155,-0.02331 -0.138164,-0.0518 z m 2.841453,-5.170081 c 0,-2.344307 0.01451,-3.303342 0.03224,-2.131188 0.01773,1.172154 0.01773,3.090223 0,4.262377 -0.01773,1.172153 -0.03224,0.213119 -0.03224,-2.131189 z m -1.547495,-0.05135 c -2.9e-5,-2.316062 0.01449,-3.278192 0.03227,-2.138066 0.01778,1.140126 0.0178,3.035086 5.2e-5,4.211023 -0.01775,1.175936 -0.03229,0.243106 -0.03232,-2.072957 z m -13.452442,3.87905 c 0.258367,-0.02162 0.681151,-0.02162 0.939519,0 0.258368,0.02162 0.04698,0.03932 -0.46976,0.03932 -0.516735,0 -0.728127,-0.01769 -0.469759,-0.03932 z M 75.5331,76.87769 c 0.382335,-0.02011 0.979206,-0.01995 1.32638,3.69e-4 0.347174,0.02032 0.03435,0.03677 -0.695154,0.03657 -0.729509,-2.03e-4 -1.013561,-0.01682 -0.631226,-0.03694 z m -2.79744,-1.436925 1.269314,-0.03403 0.03276,-2.436069 0.03276,-2.436069 -0.0031,2.464989 -0.0031,2.464989 -1.298938,0.0051 -1.298939,0.0051 z m 2.870399,-0.05544 c -0.02967,-0.07183 -0.03956,-1.192634 -0.02198,-2.490666 l 0.03195,-2.360059 0.02545,2.435314 0.02545,2.435313 0.967153,0.03423 0.967152,0.03423 -0.970621,0.02112 c -0.700592,0.01525 -0.985627,-0.01521 -1.024558,-0.109487 z m 10.385084,-8.317116 -0.210562,-0.231092 0.248697,0.195657 c 0.136783,0.107611 0.248696,0.211603 0.248696,0.231093 0,0.08219 -0.08895,0.02151 -0.286831,-0.195658 z M 69.781122,59.724595 c 4.270667,-0.01489 11.259032,-0.01489 15.5297,0 4.270667,0.01489 0.776485,0.02708 -7.76485,0.02708 -8.541335,0 -12.035518,-0.01218 -7.76485,-0.02708 z"
         id="path3" /><path
         style="fill:#ffffff;fill-opacity:1;stroke:url(#linearGradient4);stroke-width:0;stroke-dasharray:none"
         d="m 73.436799,96.083206 c 2.208197,-0.01556 5.789423,-0.01555 7.95828,1.7e-5 2.168857,0.01557 0.36215,0.0283 -4.014905,0.02829 -4.377054,-1e-5 -6.151573,-0.01275 -3.943375,-0.0283 z m 4.08154,-19.197397 c 0.07599,-0.02849 0.200339,-0.02849 0.276329,0 0.07599,0.02849 0.01382,0.05181 -0.138164,0.05181 -0.151982,0 -0.214156,-0.02331 -0.138165,-0.05181 z"
         id="path2" /><path
         style="fill:#ffffff;fill-opacity:1;stroke:url(#linearGradient4);stroke-width:0;stroke-dasharray:none"
         d="m 49.101197,107.68108 c -0.168951,-0.17348 -0.182799,-1.76461 -0.181236,-20.824026 9.31e-4,-11.349908 0.03824,-20.687051 0.0829,-20.749206 0.237965,-0.331159 0.572563,-0.349176 6.484777,-0.349176 h 5.920711 v -2.773113 c 0,-2.636169 0.01092,-2.783256 0.221063,-2.978528 0.218985,-0.203485 0.368439,-0.205416 15.89943,-0.205416 15.048572,0 15.685715,0.0075 15.861295,0.187826 0.16894,0.173464 0.182928,1.767223 0.182928,20.842245 V 101.4861 l -0.291235,0.21287 c -0.286448,0.20938 -0.389103,0.21287 -6.245039,0.21287 h -5.953805 v 2.77312 c 0,2.63617 -0.01092,2.78325 -0.221063,2.97853 -0.218985,0.20348 -0.368439,0.20541 -15.89943,0.20541 -15.048572,0 -15.685714,-0.008 -15.861296,-0.18782 z m 26.283881,-1.23435 c -0.05775,-0.0478 -3.154916,-1.11908 -6.882585,-2.38056 -4.821237,-1.63156 -6.823268,-2.35421 -6.935863,-2.50359 -0.135815,-0.18017 -0.158282,-2.634122 -0.158282,-17.287989 V 67.196582 H 55.881764 50.35518 V 86.865141 106.5337 h 12.567452 c 6.912098,0 12.520198,-0.0391 12.462446,-0.087 z m 4.150464,-2.32667 v -2.20822 l -6.493736,0.008 c -4.171836,0.005 -6.394931,0.0425 -6.217406,0.10437 1.705907,0.59425 12.566187,4.28761 12.628243,4.29461 0.0456,0.005 0.0829,-0.98435 0.0829,-2.19887 z M 92.136153,80.805376 V 61.136817 H 77.545972 62.955791 V 80.805376 100.47393 H 77.545972 92.136153 Z M 69.189745,95.978892 c -0.383107,-0.2377 -0.411393,-0.702643 -0.06551,-1.07686 0.155407,-0.16814 0.688765,-0.179738 8.265052,-0.179738 h 8.098924 l 0.235334,0.278001 c 0.262424,0.310003 0.22769,0.709943 -0.08067,0.928816 -0.140935,0.100037 -1.96396,0.128038 -8.256193,0.126812 -4.441425,-8.65e-4 -8.130047,-0.03553 -8.196936,-0.07703 z M 69.242332,89.536 c -0.493519,-0.251056 -0.492822,-0.929669 0.0012,-1.17535 0.14862,-0.07391 2.782754,-0.108953 8.189659,-0.108953 h 7.970571 l 0.271305,0.252101 c 0.326038,0.30296 0.343766,0.566349 0.06004,0.891984 l -0.211267,0.242472 -7.99571,0.02266 c -6.775689,0.0192 -8.039974,1.42e-4 -8.285804,-0.124913 z m 1.559483,-7.634114 c -0.239286,-0.116394 -0.479316,-0.358006 -0.633832,-0.63801 -0.234094,-0.424209 -0.248697,-0.574542 -0.248697,-2.560288 v -2.109617 l -0.521214,-0.359286 c -0.593877,-0.409375 -0.97388,-0.886689 -1.134989,-1.425638 -0.187823,-0.628315 -0.140704,-3.184691 0.06925,-3.757268 0.229147,-0.624906 0.869559,-1.226907 1.681127,-1.580295 l 0.624278,-0.271835 4.089672,-0.06015 c 4.493462,-0.06609 4.553586,-0.07371 6.028209,-0.763754 0.537517,-0.251529 0.835374,-0.477813 1.160766,-0.881843 0.597872,-0.742359 1.292656,-1.069239 2.259188,-1.062896 1.189157,0.0078 2.238971,0.719693 2.536355,1.719927 0.09131,0.307122 0.119086,1.787069 0.09597,5.113611 l -0.03253,4.681402 -0.334517,0.50263 c -0.666285,1.001131 -2.116238,1.451766 -3.309111,1.02845 -0.449329,-0.159454 -1.385564,-0.954683 -1.385564,-1.176885 0,-0.13337 -0.924638,-0.643711 -1.670001,-0.921734 -0.92995,-0.346874 -2.196036,-0.519705 -3.836398,-0.523698 -1.351715,-0.0033 -1.467161,0.0111 -1.412865,0.176156 0.154231,0.468834 0.950554,3.777124 0.950554,3.949036 0,0.329294 -0.31839,0.789583 -0.659572,0.953526 -0.250948,0.120585 -0.731848,0.155801 -2.127588,0.155801 -1.530893,0 -1.861542,-0.02831 -2.18849,-0.187339 z m 3.248433,-1.892496 c -0.08684,-0.353058 -0.297961,-1.196547 -0.469153,-1.874419 l -0.311257,-1.232494 -0.901554,-0.02983 -0.901554,-0.02983 v 1.90425 1.904249 h 1.370706 1.370706 z m 10.627404,-1.882355 c 0.707718,-0.312063 0.716069,-0.371181 0.716069,-5.069248 0,-4.533095 -0.02117,-4.723146 -0.565577,-5.077472 -0.526596,-0.342735 -1.478785,-0.126092 -1.73407,0.394538 -0.175708,0.358341 -0.189144,9.006891 -0.01446,9.310181 0.143093,0.248447 0.74607,0.603089 1.026292,0.603615 0.112397,2.11e-4 0.369685,-0.07252 0.57175,-0.161614 z M 81.41458,73.003227 v -3.334356 l -0.469759,0.18706 c -1.180043,0.469895 -2.748424,0.730011 -4.401632,0.730011 h -0.986787 v 2.464989 2.464989 h 1.316657 c 1.481225,0 2.599316,0.167737 3.657268,0.548664 0.395151,0.142279 0.75576,0.261909 0.801355,0.265844 0.04559,0.0039 0.0829,-1.493305 0.0829,-3.327201 z m -7.320722,0.02203 0.02963,-2.439312 h -1.552994 c -1.692388,0 -2.050453,0.0787 -2.568312,0.56452 L 69.69822,71.43562 v 1.591516 1.591516 l 0.381826,0.334618 c 0.517191,0.453248 0.980688,0.547253 2.602529,0.527839 l 1.381646,-0.01654 z"
         id="path1" /></g></g></svg>
