<?xml version="1.0" encoding="UTF-8" standalone="no"?>
<!-- Created with Inkscape (http://www.inkscape.org/) -->

<svg
   width="64"
   height="64"
   viewBox="0 0 16.933333 16.933333"
   version="1.1"
   id="svg1"
   xml:space="preserve"
   inkscape:version="1.3.2 (091e20e, 2023-11-25, custom)"
   sodipodi:docname="fullstack.svg"
   xmlns:inkscape="http://www.inkscape.org/namespaces/inkscape"
   xmlns:sodipodi="http://sodipodi.sourceforge.net/DTD/sodipodi-0.dtd"
   xmlns="http://www.w3.org/2000/svg"
   xmlns:svg="http://www.w3.org/2000/svg"><sodipodi:namedview
     id="namedview1"
     pagecolor="#ffffff"
     bordercolor="#000000"
     borderopacity="0.25"
     inkscape:showpageshadow="2"
     inkscape:pageopacity="0.0"
     inkscape:pagecheckerboard="0"
     inkscape:deskcolor="#d1d1d1"
     inkscape:document-units="mm"
     showgrid="false"
     inkscape:zoom="2.6154618"
     inkscape:cx="85.644531"
     inkscape:cy="41.101728"
     inkscape:window-width="1366"
     inkscape:window-height="715"
     inkscape:window-x="-8"
     inkscape:window-y="-8"
     inkscape:window-maximized="1"
     inkscape:current-layer="layer1" /><defs
     id="defs1" /><g
     inkscape:label="Capa 1"
     inkscape:groupmode="layer"
     id="layer1"><path
       style="fill:#666666;stroke-width:0.91669"
       d="m 2.6680719,14.796635 -0.060951,-0.06333 v -0.698986 -0.698983 l 0.060951,-0.06333 0.060951,-0.06333 h 0.6726833 0.6726823 l 0.060951,0.06333 c 0.056194,0.05839 0.060951,0.08253 0.060951,0.309616 v 0.246286 h 0.5349861 c 0.5349017,0 0.5349954,-1e-5 0.5959336,-0.06333 l 0.060951,-0.06333 v -0.6591 -0.659116 H 4.8509639 c -0.3491842,0 -0.5729521,-0.01098 -0.6393872,-0.03138 -0.13639,-0.04187 -0.3420907,-0.255617 -0.3823885,-0.397339 -0.043693,-0.15365 -0.043693,-6.4197218 0,-6.5733715 C 3.8694822,5.2392222 4.0751867,5.0254793 4.2115767,4.983606 4.2780157,4.963209 4.5017797,4.952228 4.8509639,4.952228 H 5.3881486 V 4.2931178 3.6340092 L 5.3271973,3.5706784 C 5.2662553,3.5073575 5.266171,3.5073477 4.7312636,3.5073477 H 4.1962785 v 0.2462861 c 0,0.2270871 -0.00478,0.2512231 -0.060951,0.3096169 l -0.060951,0.063331 H 3.4016925 2.7290092 L 2.6680579,4.0632507 2.6071065,3.9999199 V 3.3009365 2.6019529 l 0.060951,-0.063331 0.060951,-0.063331 h 0.672684 0.6726824 l 0.060951,0.063331 c 0.056194,0.058393 0.060951,0.082529 0.060951,0.3096168 V 3.094525 h 0.5371838 c 0.3491841,0 0.572953,0.010981 0.6393871,0.031378 0.136391,0.041874 0.3420908,0.2556163 0.3823885,0.3973392 0.020264,0.071272 0.0302,0.3237244 0.0302,0.7675918 V 4.9522267 H 7.0766267 8.3678169 V 4.539404 4.1265815 H 8.1307977 c -0.2185428,0 -0.2417706,-0.00494 -0.2979669,-0.063331 L 7.7718795,3.9999199 V 3.3009364 2.6019528 l 0.060951,-0.063331 0.060951,-0.063331 h 0.672683 0.6726833 l 0.060951,0.063331 0.060951,0.063331 v 0.6989836 0.6989835 l -0.060951,0.063331 c -0.056194,0.058394 -0.079427,0.063331 -0.2979668,0.063331 H 8.7651132 V 4.539404 4.9522265 h 1.2911888 1.291189 V 4.2908337 c 0,-0.4438674 0.0099,-0.6963205 0.0302,-0.7675918 0.04029,-0.1417229 0.245997,-0.3554658 0.382388,-0.3973391 0.06644,-0.020397 0.290203,-0.031378 0.639387,-0.031378 H 12.93665 V 2.8482391 c 0,-0.2270871 0.0048,-0.251223 0.06095,-0.3096169 l 0.06095,-0.063331 h 0.672683 0.672682 l 0.06095,0.063331 0.06095,0.063331 v 0.6989836 0.6989835 l -0.06095,0.063331 -0.06095,0.063331 H 13.731233 13.05855 L 12.9976,4.0632513 c -0.0562,-0.058394 -0.06095,-0.08253 -0.06095,-0.3096171 v -0.246286 h -0.534986 c -0.534903,0 -0.534995,9.8e-6 -0.595934,0.063331 l -0.06095,0.063331 v 0.6591086 0.6591086 h 0.537184 c 0.349184,0 0.572952,0.010981 0.639387,0.031378 0.13639,0.041873 0.342091,0.2556162 0.382389,0.3973391 0.04369,0.1536497 0.04369,6.4197215 0,6.5733725 -0.0403,0.141722 -0.245999,0.355465 -0.382389,0.397339 -0.06644,0.0204 -0.290203,0.03138 -0.639387,0.03138 H 11.74478 v 0.659108 0.659108 l 0.06095,0.06333 c 0.06094,0.06332 0.06103,0.06333 0.595934,0.06333 h 0.534986 v -0.246286 c 0,-0.227088 0.0048,-0.251223 0.06095,-0.309617 l 0.06095,-0.06333 h 0.672683 0.672682 l 0.06095,0.06333 0.06095,0.06333 v 0.698984 0.698983 l -0.06095,0.06333 -0.06095,0.06333 H 13.731224 13.05854 l -0.06095,-0.06333 c -0.05619,-0.05839 -0.06095,-0.08253 -0.06095,-0.309617 v -0.246286 h -0.537184 c -0.349184,0 -0.572953,-0.01098 -0.639387,-0.03137 -0.136391,-0.04187 -0.342091,-0.255617 -0.382389,-0.397339 -0.02026,-0.07127 -0.0302,-0.323725 -0.0302,-0.767592 v -0.66139 H 10.056295 8.7651057 v 0.412822 0.412822 h 0.2370192 c 0.2185428,0 0.2417706,0.0049 0.2979668,0.06333 l 0.060951,0.06333 v 0.698984 0.698983 l -0.060951,0.06333 -0.060951,0.06333 H 8.5664571 7.8937747 l -0.060951,-0.06333 -0.060951,-0.06333 v -0.698978 -0.698983 l 0.060951,-0.06333 c 0.056194,-0.05839 0.079427,-0.06333 0.2979669,-0.06333 H 8.3678169 V 12.795854 12.383032 H 7.0766267 5.7854374 v 0.661392 c 0,0.443867 -0.00994,0.69632 -0.030199,0.767592 -0.040294,0.141722 -0.2459985,0.355465 -0.3823886,0.397339 -0.066439,0.0204 -0.2902029,0.03137 -0.6393871,0.03137 H 4.1962785 v 0.246287 c 0,0.227087 -0.00478,0.251223 -0.060951,0.309617 l -0.060951,0.06333 H 3.4016925 2.7290092 Z M 3.7989916,14.034321 V 13.621499 H 3.4017028 3.0044131 v 0.412822 0.412823 h 0.3972897 0.3972888 z m -0.5959337,0 v -0.206412 h 0.1986449 0.1986439 v 0.206412 0.206411 H 3.4017028 3.2030579 Z m 5.7606926,0 V 13.621499 H 8.5664608 8.169172 v 0.412822 0.412823 h 0.3972888 0.3972897 z m -0.5959336,0 v -0.206412 h 0.1986439 0.1986449 v 0.206412 0.206411 H 8.5664608 8.3678169 Z m 5.7606911,0 V 13.621499 H 13.731219 13.33393 v 0.412822 0.412823 h 0.397289 0.397289 z m -0.595934,0 v -0.206412 h 0.198645 0.198644 v 0.206412 0.206411 h -0.198644 -0.198645 z m -0.656881,-2.127443 0.06095,-0.06333 V 9.2235346 6.6035191 H 8.5664608 4.1962813 v 2.5918271 c 0,1.8498678 0.00796,2.6098878 0.027662,2.6549158 0.015217,0.0347 0.051531,0.07509 0.0807,0.08977 0.035846,0.01804 1.4233533,0.02725 4.2815692,0.02843 l 4.2285325,0.0017 z M 5.0518065,11.081233 4.9908589,11.017902 V 9.2868627 7.5558229 l 0.060951,-0.063331 c 0.080635,-0.083786 0.1947606,-0.083786 0.2753935,0 l 0.060951,0.063331 v 1.7310398 1.7310393 l -0.060951,0.06333 c -0.038421,0.03992 -0.089315,0.06333 -0.1376963,0.06333 -0.048375,0 -0.099278,-0.02341 -0.1376972,-0.06333 z m 0.9322758,-0.14308 v -0.206412 h 0.5959336 0.5959337 v 0.206412 0.20641 H 6.5800159 5.9840823 Z m 1.5891561,0 v -0.206412 h 0.1986448 0.198644 v 0.206412 0.20641 H 7.7718832 7.5732384 Z M 6.7786598,10.318919 v -0.206412 h 0.1986449 0.1986449 v 0.206412 0.206411 H 6.9773047 6.7786598 Z m 0.7945786,0 V 10.112507 H 8.7651057 9.956973 v 0.206412 0.206411 H 8.7651057 7.5732384 Z m 2.7810226,0 v -0.206412 h 0.397289 0.39729 v 0.206412 0.206411 H 10.75155 10.354261 Z M 6.7786598,9.6996842 V 9.4932735 H 7.9705272 9.1623945 V 9.6996842 9.9060959 H 7.9705272 6.7786598 Z m 2.7810244,0 V 9.4932735 H 9.7583281 9.956973 V 9.6996842 9.9060959 H 9.7583281 9.5596842 Z m 0.7945768,0 V 9.4932735 h 0.893901 0.8939 v 0.2064107 0.2064117 h -0.8939 -0.893901 z M 5.9840823,9.0804511 V 8.8740403 H 6.5800159 7.1759496 V 9.0804511 9.2868627 H 6.5800159 5.9840823 Z m 1.5891561,0 V 8.8740403 h 0.1986448 0.198644 V 9.0804511 9.2868627 H 7.7718832 7.5732384 Z M 7.0382523,8.6042979 c -0.033524,-0.034827 -0.060951,-0.090239 -0.060951,-0.1231259 0,-0.032889 0.094862,-0.3556097 0.2108042,-0.7171614 0.2222538,-0.6930695 0.2506628,-0.7476717 0.389009,-0.7476717 0.088454,0 0.1947653,0.1017779 0.1947653,0.1864565 0,0.032887 -0.094863,0.35561 -0.2108052,0.7171618 C 7.4157153,8.3732415 7.3339193,8.5913415 7.2976032,8.6224761 7.2219595,8.6873297 7.1106486,8.6795315 7.0382486,8.6042952 Z M 6.1644614,8.2161769 C 5.7975584,7.9616385 5.761511,7.9187528 5.7956518,7.7774077 c 0.020863,-0.086358 0.689183,-0.5546576 0.791567,-0.5546576 0.137555,0 0.2345368,0.177733 0.167745,0.3074146 C 6.7419289,7.555469 6.647098,7.6330777 6.5442251,7.702628 6.4413514,7.7721785 6.3571815,7.8348885 6.3571815,7.8419838 c 0,0.0071 0.084165,0.069805 0.1870436,0.1393559 0.1028729,0.069551 0.1977057,0.1471589 0.2107387,0.1724633 0.066795,0.1296817 -0.03019,0.3074149 -0.167745,0.3074149 -0.046493,0 -0.1866025,-0.081213 -0.4227574,-0.245041 z M 8.0314757,8.3978871 C 7.9682769,8.3322169 7.9532006,8.233452 7.994225,8.153803 8.00726,8.1284987 8.1020899,8.05089 8.2049637,7.9813397 8.3078375,7.9117892 8.3920064,7.8490792 8.3920064,7.8419838 c 0,-0.0071 -0.084165,-0.069805 -0.1870427,-0.1393558 C 8.1020899,7.6330775 8.0072581,7.5554692 7.994225,7.5301647 7.92743,7.4004831 8.024415,7.2227501 8.16197,7.2227501 c 0.1023841,0 0.7707084,0.4683001 0.791567,0.5546576 0.034142,0.1413451 -0.00187,0.1842308 -0.3688095,0.4387692 C 8.1998069,8.4832154 8.1342999,8.50473 8.0314757,8.3978871 Z M 3.7989916,3.3009365 V 2.888114 H 3.4017028 3.0044131 V 3.3009365 3.713759 h 0.3972897 0.3972888 z m -0.5959337,0 V 3.0945253 H 3.4017028 3.6003467 V 3.3009365 3.5073478 H 3.4017028 3.2030579 Z m 5.7606926,0 V 2.888114 H 8.5664608 8.169172 V 3.3009365 3.713759 h 0.3972888 0.3972897 z m -0.5959336,0 V 3.0945253 H 8.5664608 8.7651057 V 3.3009365 3.5073478 H 8.5664608 8.3678169 Z m 5.7606911,0 V 2.888114 H 13.731219 13.33393 V 3.3009365 3.713759 h 0.397289 0.397289 z m -0.595934,0 V 3.0945253 h 0.198645 0.198644 v 0.2064112 0.2064113 h -0.198644 -0.198645 z"
       id="path1" /><rect
       style="opacity:1;fill:none;stroke:#ffffff;stroke-width:1.1686;stroke-linecap:round;stroke-opacity:1"
       id="rect1"
       width="15.711395"
       height="15.812556"
       x="0.59126496"
       y="0.59126496" /></g></svg>
