<?xml version="1.0" encoding="UTF-8" standalone="no"?>
<!-- Created with Inkscape (http://www.inkscape.org/) -->

<svg
   width="600"
   height="250"
   viewBox="0 0 158.75 66.145832"
   version="1.1"
   id="svg1"
   xml:space="preserve"
   inkscape:version="1.3.2 (091e20e, 2023-11-25, custom)"
   sodipodi:docname="landing.svg"
   inkscape:export-filename="landing.png"
   inkscape:export-xdpi="96"
   inkscape:export-ydpi="96"
   xmlns:inkscape="http://www.inkscape.org/namespaces/inkscape"
   xmlns:sodipodi="http://sodipodi.sourceforge.net/DTD/sodipodi-0.dtd"
   xmlns="http://www.w3.org/2000/svg"
   xmlns:svg="http://www.w3.org/2000/svg"><sodipodi:namedview
     id="namedview1"
     pagecolor="#ffffff"
     bordercolor="#000000"
     borderopacity="0.25"
     inkscape:showpageshadow="2"
     inkscape:pageopacity="0.0"
     inkscape:pagecheckerboard="0"
     inkscape:deskcolor="#d1d1d1"
     inkscape:document-units="mm"
     inkscape:zoom="0.65386545"
     inkscape:cx="84.115165"
     inkscape:cy="-100.17351"
     inkscape:window-width="1366"
     inkscape:window-height="715"
     inkscape:window-x="-8"
     inkscape:window-y="-8"
     inkscape:window-maximized="1"
     inkscape:current-layer="layer1" /><defs
     id="defs1" /><g
     inkscape:label="Capa 1"
     inkscape:groupmode="layer"
     id="layer1"><g
       id="g8"
       transform="translate(48.199794,11.854665)"><path
         style="fill:#ffffff"
         d="M 6.1855803,15.225135 C 6.1039085,15.19189 6.0527017,15.10022 6.0527017,14.987256 c 0,-0.08992 0.018177,-0.123013 0.148951,-0.271151 0.3634789,-0.411743 0.5660844,-0.86329 0.6151676,-1.371024 l 0.019567,-0.20241 -1.8144412,-0.007 -1.8144412,-0.007 -0.1701693,-0.08682 C 2.9141427,12.979077 2.8410859,12.920874 2.77269,12.831088 2.5923126,12.594299 2.6035112,12.887689 2.6107444,8.5882838 l 0.00651,-3.868329 0.065993,-0.1250192 C 2.7591349,4.4511682 2.9383078,4.2761601 3.0714359,4.2157684 3.1439191,4.1828874 3.2687252,4.171672 3.6714517,4.1618494 L 4.1799478,4.149447 4.1941951,3.9138025 C 4.216757,3.5406398 4.3510515,3.3159708 4.6348522,3.1766018 l 0.1404081,-0.068952 h 3.9067382 3.9067385 l 0.140408,0.068952 c 0.283801,0.139369 0.418095,0.364038 0.440657,0.7372007 l 0.01425,0.2356445 0.508496,0.012402 c 0.402727,0.00982 0.527533,0.021038 0.600016,0.053919 0.133128,0.060392 0.312301,0.2353998 0.388191,0.3791672 l 0.06599,0.1250192 0.0065,3.868329 c 0.0072,4.2994056 0.01843,4.0060156 -0.161946,4.2428046 -0.0684,0.08979 -0.141453,0.147989 -0.264646,0.210839 l -0.170169,0.08682 -1.819753,0.007 -1.819753,0.007 0.01124,0.05504 c 0.0062,0.03027 0.01791,0.123848 0.02608,0.207945 0.04379,0.451153 0.268534,0.930628 0.621777,1.326516 0.119486,0.13391 0.135222,0.164011 0.135222,0.258655 0,0.07746 -0.01657,0.126373 -0.05986,0.176704 l -0.05986,0.0696 -2.4764189,0.0048 c -1.3650525,0.0027 -2.5002748,-0.0049 -2.5295758,-0.01682 z m 4.3071607,-0.504657 c 0,-0.0045 -0.04984,-0.09562 -0.110747,-0.202503 -0.194364,-0.341066 -0.358852,-0.884252 -0.360596,-1.190794 -3.88e-4,-0.06821 -0.0096,-0.138076 -0.02053,-0.155251 -0.015611,-0.02459 -0.298871,-0.02986 -1.3328717,-0.0248 l -1.3130476,0.0064 -0.016284,0.21084 c -0.029168,0.377669 -0.1763682,0.847877 -0.3677658,1.174772 -0.054803,0.0936 -0.099642,0.174526 -0.099642,0.179834 0,0.0053 0.814834,0.0097 1.8107422,0.0097 0.9959082,0 1.8107429,-0.0037 1.8107429,-0.0082 z m 3.615901,-2.149944 c 0.04468,-0.02724 0.09212,-0.07816 0.10542,-0.113143 0.01358,-0.03571 0.02419,-0.362081 0.02419,-0.744129 V 11.032748 H 8.6819985 3.1257486 v 0.680514 c 0,0.382048 0.010608,0.708415 0.024186,0.744129 0.013302,0.03499 0.060741,0.0859 0.1054199,0.113143 0.080526,0.0491 0.1278177,0.04953 5.4266436,0.04953 5.2988259,0 5.3461189,-4.31e-4 5.4266439,-0.04953 z M 4.1799478,7.5848962 V 4.6703455 l -0.3794002,-0.00685 c -0.4495842,-0.00812 -0.557752,0.013632 -0.6262282,0.1259362 -0.047227,0.077455 -0.048388,0.1468935 -0.048478,2.901381 l -9.27e-5,2.8220263 0.5270996,-0.0067 0.5270996,-0.0067 z M 12.650748,7.8577478 V 5.2036462 H 8.6819985 4.7132486 v 2.6541016 2.6541012 h 3.9687499 3.9687495 z m 1.587408,-0.1674317 c -9.1e-5,-2.7539983 -0.0013,-2.8234325 -0.04848,-2.9008877 -0.06848,-0.1123045 -0.176644,-0.1340573 -0.626229,-0.1259362 l -0.3794,0.00685 -0.0064,2.889746 c -0.0035,1.5893603 -0.0011,2.9036988 0.0054,2.9207518 0.0089,0.02345 0.138977,0.03101 0.533484,0.03101 h 0.521677 z M 6.3007485,4.149447 V 3.6161463 H 5.5913345 4.8819204 l -0.084336,0.084336 -0.084336,0.084336 V 4.233783 4.6827478 h 0.7937499 0.79375 z M 12.650748,4.233783 V 3.7848181 l -0.08434,-0.084336 -0.08433,-0.084336 H 9.6518618 6.821647 V 4.149447 4.6827478 h 2.9145507 2.9145503 z"
         id="path1" /><ellipse
         style="fill:#ffffff;stroke:#ffffff;stroke-width:0.0847006;stroke-linecap:round;stroke-linejoin:round;stroke-dasharray:none"
         id="path2"
         cx="6.3036408"
         cy="7.1006579"
         rx="0.96938205"
         ry="0.98726499" /><ellipse
         style="fill:#ffffff;stroke:#ffffff;stroke-width:0.0847006;stroke-linecap:round;stroke-linejoin:round;stroke-dasharray:none"
         id="ellipse2"
         cx="8.6641903"
         cy="7.1185408"
         rx="0.96938205"
         ry="0.98726499" /><ellipse
         style="fill:#ffffff;stroke:#ffffff;stroke-width:0.0847006;stroke-linecap:round;stroke-linejoin:round;stroke-dasharray:none"
         id="ellipse3"
         cx="11.042623"
         cy="7.1364236"
         rx="0.96938205"
         ry="0.98726499" /><rect
         style="fill:#ffffff;stroke:#ffffff;stroke-width:0.127;stroke-linecap:round;stroke-linejoin:round;stroke-dasharray:none"
         id="rect3"
         width="2.0565391"
         height="0.48283958"
         x="5.2397037"
         y="8.4049854" /><rect
         style="fill:#ffffff;stroke:#ffffff;stroke-width:0.127;stroke-linecap:round;stroke-linejoin:round;stroke-dasharray:none"
         id="rect4"
         width="2.0565391"
         height="0.48283958"
         x="5.2039375"
         y="9.0308886" /><rect
         style="fill:#ffffff;stroke:#ffffff;stroke-width:0.127;stroke-linecap:round;stroke-linejoin:round;stroke-dasharray:none"
         id="rect5"
         width="2.0565391"
         height="0.48283958"
         x="7.5287209"
         y="8.4049854" /><rect
         style="fill:#ffffff;stroke:#ffffff;stroke-width:0.127;stroke-linecap:round;stroke-linejoin:round;stroke-dasharray:none"
         id="rect6"
         width="2.0565391"
         height="0.48283958"
         x="7.5287209"
         y="8.9772396" /><rect
         style="fill:#ffffff;stroke:#ffffff;stroke-width:0.127;stroke-linecap:round;stroke-linejoin:round;stroke-dasharray:none"
         id="rect7"
         width="2.0565391"
         height="0.48283958"
         x="10.014451"
         y="8.4228678" /><rect
         style="fill:#f9f9f9;stroke:#ffffff;stroke-width:0.127;stroke-linecap:round;stroke-linejoin:round;stroke-dasharray:none"
         id="rect8"
         width="2.0565391"
         height="0.48283958"
         x="9.9965677"
         y="8.9593563" /></g><rect
       style="fill:#d2b48c;fill-opacity:1;stroke:#d2b48c;stroke-width:0.127028;stroke-linecap:round;stroke-linejoin:round;stroke-dasharray:none;stroke-opacity:1"
       id="rect9"
       width="158.58594"
       height="66.381477"
       x="0.17884378"
       y="0.071546085" /><g
       id="g16"
       transform="matrix(4.7682302,0,0,4.8669331,18.323557,-11.321368)"><path
         style="fill:#ffffff"
         d="M 6.1855803,15.225135 C 6.1039085,15.19189 6.0527017,15.10022 6.0527017,14.987256 c 0,-0.08992 0.018177,-0.123013 0.148951,-0.271151 0.3634789,-0.411743 0.5660844,-0.86329 0.6151676,-1.371024 l 0.019567,-0.20241 -1.8144412,-0.007 -1.8144412,-0.007 -0.1701693,-0.08682 C 2.9141427,12.979077 2.8410859,12.920874 2.77269,12.831088 2.5923126,12.594299 2.6035112,12.887689 2.6107444,8.5882838 l 0.00651,-3.868329 0.065993,-0.1250192 C 2.7591349,4.4511682 2.9383078,4.2761601 3.0714359,4.2157684 3.1439191,4.1828874 3.2687252,4.171672 3.6714517,4.1618494 L 4.1799478,4.149447 4.1941951,3.9138025 C 4.216757,3.5406398 4.3510515,3.3159708 4.6348522,3.1766018 l 0.1404081,-0.068952 h 3.9067382 3.9067385 l 0.140408,0.068952 c 0.283801,0.139369 0.418095,0.364038 0.440657,0.7372007 l 0.01425,0.2356445 0.508496,0.012402 c 0.402727,0.00982 0.527533,0.021038 0.600016,0.053919 0.133128,0.060392 0.312301,0.2353998 0.388191,0.3791672 l 0.06599,0.1250192 0.0065,3.868329 c 0.0072,4.2994056 0.01843,4.0060156 -0.161946,4.2428046 -0.0684,0.08979 -0.141453,0.147989 -0.264646,0.210839 l -0.170169,0.08682 -1.819753,0.007 -1.819753,0.007 0.01124,0.05504 c 0.0062,0.03027 0.01791,0.123848 0.02608,0.207945 0.04379,0.451153 0.268534,0.930628 0.621777,1.326516 0.119486,0.13391 0.135222,0.164011 0.135222,0.258655 0,0.07746 -0.01657,0.126373 -0.05986,0.176704 l -0.05986,0.0696 -2.4764189,0.0048 c -1.3650525,0.0027 -2.5002748,-0.0049 -2.5295758,-0.01682 z m 4.3071607,-0.504657 c 0,-0.0045 -0.04984,-0.09562 -0.110747,-0.202503 -0.194364,-0.341066 -0.358852,-0.884252 -0.360596,-1.190794 -3.88e-4,-0.06821 -0.0096,-0.138076 -0.02053,-0.155251 -0.015611,-0.02459 -0.298871,-0.02986 -1.3328717,-0.0248 l -1.3130476,0.0064 -0.016284,0.21084 c -0.029168,0.377669 -0.1763682,0.847877 -0.3677658,1.174772 -0.054803,0.0936 -0.099642,0.174526 -0.099642,0.179834 0,0.0053 0.814834,0.0097 1.8107422,0.0097 0.9959082,0 1.8107429,-0.0037 1.8107429,-0.0082 z m 3.615901,-2.149944 c 0.04468,-0.02724 0.09212,-0.07816 0.10542,-0.113143 0.01358,-0.03571 0.02419,-0.362081 0.02419,-0.744129 V 11.032748 H 8.6819985 3.1257486 v 0.680514 c 0,0.382048 0.010608,0.708415 0.024186,0.744129 0.013302,0.03499 0.060741,0.0859 0.1054199,0.113143 0.080526,0.0491 0.1278177,0.04953 5.4266436,0.04953 5.2988259,0 5.3461189,-4.31e-4 5.4266439,-0.04953 z M 4.1799478,7.5848962 V 4.6703455 l -0.3794002,-0.00685 c -0.4495842,-0.00812 -0.557752,0.013632 -0.6262282,0.1259362 -0.047227,0.077455 -0.048388,0.1468935 -0.048478,2.901381 l -9.27e-5,2.8220263 0.5270996,-0.0067 0.5270996,-0.0067 z M 12.650748,7.8577478 V 5.2036462 H 8.6819985 4.7132486 v 2.6541016 2.6541012 h 3.9687499 3.9687495 z m 1.587408,-0.1674317 c -9.1e-5,-2.7539983 -0.0013,-2.8234325 -0.04848,-2.9008877 -0.06848,-0.1123045 -0.176644,-0.1340573 -0.626229,-0.1259362 l -0.3794,0.00685 -0.0064,2.889746 c -0.0035,1.5893603 -0.0011,2.9036988 0.0054,2.9207518 0.0089,0.02345 0.138977,0.03101 0.533484,0.03101 h 0.521677 z M 6.3007485,4.149447 V 3.6161463 H 5.5913345 4.8819204 l -0.084336,0.084336 -0.084336,0.084336 V 4.233783 4.6827478 h 0.7937499 0.79375 z M 12.650748,4.233783 V 3.7848181 l -0.08434,-0.084336 -0.08433,-0.084336 H 9.6518618 6.821647 V 4.149447 4.6827478 h 2.9145507 2.9145503 z"
         id="path9" /><ellipse
         style="fill:#ffffff;stroke:#ffffff;stroke-width:0.0847006;stroke-linecap:round;stroke-linejoin:round;stroke-dasharray:none"
         id="ellipse9"
         cx="6.3036408"
         cy="7.1006579"
         rx="0.96938205"
         ry="0.98726499" /><ellipse
         style="fill:#ffffff;stroke:#ffffff;stroke-width:0.0847006;stroke-linecap:round;stroke-linejoin:round;stroke-dasharray:none"
         id="ellipse10"
         cx="8.6641903"
         cy="7.1185408"
         rx="0.96938205"
         ry="0.98726499" /><ellipse
         style="fill:#ffffff;stroke:#ffffff;stroke-width:0.0847006;stroke-linecap:round;stroke-linejoin:round;stroke-dasharray:none"
         id="ellipse11"
         cx="11.042623"
         cy="7.1364236"
         rx="0.96938205"
         ry="0.98726499" /><rect
         style="fill:#ffffff;stroke:#ffffff;stroke-width:0.127;stroke-linecap:round;stroke-linejoin:round;stroke-dasharray:none"
         id="rect11"
         width="2.0565391"
         height="0.48283958"
         x="5.2397037"
         y="8.4049854" /><rect
         style="fill:#ffffff;stroke:#ffffff;stroke-width:0.127;stroke-linecap:round;stroke-linejoin:round;stroke-dasharray:none"
         id="rect12"
         width="2.0565391"
         height="0.48283958"
         x="5.2039375"
         y="9.0308886" /><rect
         style="fill:#ffffff;stroke:#ffffff;stroke-width:0.127;stroke-linecap:round;stroke-linejoin:round;stroke-dasharray:none"
         id="rect13"
         width="2.0565391"
         height="0.48283958"
         x="7.5287209"
         y="8.4049854" /><rect
         style="fill:#ffffff;stroke:#ffffff;stroke-width:0.127;stroke-linecap:round;stroke-linejoin:round;stroke-dasharray:none"
         id="rect14"
         width="2.0565391"
         height="0.48283958"
         x="7.5287209"
         y="8.9772396" /><rect
         style="fill:#ffffff;stroke:#ffffff;stroke-width:0.127;stroke-linecap:round;stroke-linejoin:round;stroke-dasharray:none"
         id="rect15"
         width="2.0565391"
         height="0.48283958"
         x="10.014451"
         y="8.4228678" /><rect
         style="fill:#f9f9f9;stroke:#ffffff;stroke-width:0.127;stroke-linecap:round;stroke-linejoin:round;stroke-dasharray:none"
         id="rect16"
         width="2.0565391"
         height="0.48283958"
         x="9.9965677"
         y="8.9593563" /></g></g></svg>
