<?xml version="1.0" encoding="UTF-8" standalone="no"?>
<!-- Created with Inkscape (http://www.inkscape.org/) -->

<svg
   width="64"
   height="64"
   viewBox="0 0 16.933333 16.933333"
   version="1.1"
   id="svg1"
   xml:space="preserve"
   inkscape:version="1.3.2 (091e20e, 2023-11-25, custom)"
   sodipodi:docname="pensamiento.svg"
   xmlns:inkscape="http://www.inkscape.org/namespaces/inkscape"
   xmlns:sodipodi="http://sodipodi.sourceforge.net/DTD/sodipodi-0.dtd"
   xmlns="http://www.w3.org/2000/svg"
   xmlns:svg="http://www.w3.org/2000/svg"><sodipodi:namedview
     id="namedview1"
     pagecolor="#ffffff"
     bordercolor="#000000"
     borderopacity="0.25"
     inkscape:showpageshadow="2"
     inkscape:pageopacity="0.0"
     inkscape:pagecheckerboard="0"
     inkscape:deskcolor="#d1d1d1"
     inkscape:document-units="mm"
     inkscape:zoom="5.2309236"
     inkscape:cx="21.602304"
     inkscape:cy="32.785797"
     inkscape:window-width="1366"
     inkscape:window-height="715"
     inkscape:window-x="-8"
     inkscape:window-y="-8"
     inkscape:window-maximized="1"
     inkscape:current-layer="layer1"
     showgrid="false" /><defs
     id="defs1" /><g
     inkscape:label="Capa 1"
     inkscape:groupmode="layer"
     id="layer1"><g
       id="g1"
       transform="matrix(1.0957667,0,0,1.0919949,-1.2071165,-0.63283944)"><path
         style="fill:#d0d0d0;fill-opacity:1"
         d="m 6.5085143,13.543059 -0.00583,-0.799553 -0.6759277,-0.007 -0.6759277,-0.007 0.6767062,-0.0058 c 0.5254184,-0.0045 0.6793858,0.0012 0.6886918,0.02545 0.00659,0.01718 0.00887,0.382738 0.00506,0.812353 l -0.00693,0.78112 z m 5.8333077,0.402677 c 3.1e-5,-0.218281 0.0038,-0.304258 0.0084,-0.191059 0.0046,0.113199 0.0046,0.291793 -5.7e-5,0.396875 -0.0046,0.105083 -0.0084,0.01246 -0.0084,-0.205816 z M 7.0483826,13.190576 V 12.3486 L 6.9885626,12.279 6.9287426,12.2094 6.0025768,12.197 C 5.1610021,12.185736 5.0678394,12.180345 4.9825734,12.13798 4.8456973,12.069973 4.7244871,11.916295 4.6934023,11.771352 4.6775025,11.697213 4.666915,11.265026 4.6665811,10.676498 4.6658892,9.4566858 4.7086948,9.542904 4.1037748,9.542904 c -0.3985735,0 -0.478439,-0.022003 -0.478439,-0.1318121 0,-0.030022 0.2309798,-0.4563396 0.5132883,-0.9473728 L 4.6519124,7.5709314 4.6706247,7.0996424 C 4.6930008,6.5360772 4.7257978,6.2471887 4.8039025,5.92568 5.1842654,4.3599608 6.3552704,3.1254273 7.891742,2.6703212 c 1.1024488,-0.3265476 2.255729,-0.2215137 3.290135,0.299646 0.422232,0.2127311 0.734577,0.4328569 1.06716,0.7520829 0.419814,0.402954 0.694276,0.774235 0.938226,1.2691939 0.298813,0.6062704 0.430053,1.1438178 0.451753,1.8503389 0.03646,1.187064 -0.230616,2.1709709 -0.884096,3.2570011 -0.465373,0.773413 -0.722093,1.445622 -0.872444,2.284457 -0.04293,0.239539 -0.05569,0.429629 -0.06531,0.973584 l -0.01196,0.675927 h -2.3784094 -2.37841 z m 2.8214895,-2.64246 C 10.929345,10.313182 11.816129,9.6221517 12.273935,8.67474 12.405675,8.4021102 12.488825,8.1548967 12.557599,7.8313806 12.635154,7.466559 12.635585,6.86385 12.558552,6.4996565 12.264775,5.1107543 11.248973,4.0893239 9.8566123,3.782747 9.5064348,3.7056432 8.8518612,3.7059334 8.4947835,3.7833508 8.2067716,3.8457942 7.8707022,3.9591478 7.663006,4.0639027 c -0.078056,0.039369 -0.1467957,0.07158 -0.1527554,0.07158 -0.00596,0 0.01038,-0.069763 0.03631,-0.1550293 0.070088,-0.230469 0.063281,-0.3054649 -0.036811,-0.4055567 -0.070728,-0.070728 -0.102207,-0.084336 -0.1950923,-0.084336 -0.1267669,0 -0.2198414,0.059258 -0.2616584,0.1665909 -0.059311,0.1522362 -0.2774169,1.0506311 -0.2766791,1.1396651 4.338e-4,0.052365 0.016429,0.1158529 0.035545,0.1410845 0.031385,0.041427 0.020111,0.064278 -0.1162679,0.2356446 -0.083063,0.1043728 -0.182726,0.2411549 -0.2214733,0.3039601 L 6.4036738,5.591697 6.2801601,5.5798289 c -0.1152466,-0.011074 -0.129366,-0.00602 -0.2109464,0.075565 -0.071065,0.071065 -0.087433,0.1061149 -0.087433,0.1872286 0,0.1149618 0.096723,0.2524305 0.1776095,0.2524305 0.042221,0 0.04425,0.00493 0.014346,0.03483 -0.019157,0.019157 -0.060631,0.1419399 -0.092164,0.2728516 -0.055395,0.2299739 -0.059665,0.2380213 -0.1262688,0.2380213 -0.094976,0 -0.2163581,0.1082283 -0.2354363,0.2099235 -0.022885,0.1219866 0.046115,0.2501165 0.1622947,0.3013749 l 0.093823,0.041395 0.016981,0.2011436 c 0.00934,0.1106291 0.022262,0.2234679 0.028716,0.2507531 0.00883,0.037321 -0.0076,0.058092 -0.066311,0.083853 -0.095973,0.04211 -0.1578209,0.1743386 -0.1359855,0.2907315 0.021502,0.114618 0.1400357,0.2083252 0.2635172,0.2083252 0.054894,0 0.097316,0.012028 0.097316,0.027592 0,0.05341 0.2310634,0.5181209 0.2579904,0.5188658 0.014995,4.149e-4 0.00668,0.012717 -0.018469,0.027338 -0.06479,0.037662 -0.117637,0.1782547 -0.1000524,0.2661776 0.00815,0.040762 0.08692,0.1642236 0.1750396,0.2743593 0.5368768,0.6710136 1.3311254,1.1122246 2.2527763,1.2514346 0.1655377,0.025 0.9466702,-0.0069 1.1223684,-0.04591 z M 12.066363,7.1616541 c 0,-0.075034 0.0046,-0.10573 0.01033,-0.068213 0.0057,0.037517 0.0057,0.098909 0,0.1364258 -0.0057,0.037517 -0.01033,0.00682 -0.01033,-0.068213 z M 7.8297303,5.8718104 c 0.094766,-0.095498 0.1778833,-0.1736329 0.1847046,-0.1736329 0.00682,0 -0.065134,0.078135 -0.1598999,0.1736329 -0.094766,0.095498 -0.1778834,0.1736328 -0.1847047,0.1736328 -0.00682,0 0.065134,-0.078135 0.1599,-0.1736328 z M 4.1325311,10.894759 c -9.4e-6,-0.450205 0.00334,-0.637879 0.00745,-0.417053 0.00411,0.220825 0.00411,0.589175 1.71e-5,0.818554 -0.0041,0.22938 -0.00746,0.0487 -0.00747,-0.401501 z m -0.00182,-3.7951166 c 5.59e-5,-0.1500684 0.00414,-0.2082619 0.00908,-0.129319 0.00494,0.078943 0.00489,0.2017262 -1.018e-4,0.2728516 -0.00499,0.071125 -0.00903,0.00654 -0.00898,-0.1435326 z m 1.5782213,-3.79208 c 0,-0.00515 0.019534,-0.024685 0.043408,-0.043408 0.039342,-0.030854 0.040219,-0.029976 0.00937,0.00937 -0.032404,0.041318 -0.052773,0.054458 -0.052773,0.034043 z M 8.9769471,1.9362421 c 0.017053,-0.00688 0.044958,-0.00688 0.062012,0 0.017053,0.00688 0.0031,0.012511 -0.031006,0.012511 -0.034106,0 -0.048059,-0.00563 -0.031006,-0.012511 z m 0.3240112,-5.167e-4 c 0.017906,-0.00717 0.0393,-0.00628 0.047542,0.00196 0.00824,0.00824 -0.00641,0.014105 -0.032556,0.013028 -0.028896,-0.00119 -0.034774,-0.00707 -0.014986,-0.014986 z"
         id="path7" /><path
         style="fill:#b9b9b9;fill-opacity:1"
         d="m 12.338537,13.462045 c 0,-0.06139 0.0048,-0.08651 0.01075,-0.05581 0.0059,0.0307 0.0059,0.08093 0,0.111621 -0.0059,0.0307 -0.01075,0.0056 -0.01075,-0.05581 z m -5.3793275,-1.196827 -0.047253,-0.05581 0.05581,0.04725 c 0.052448,0.04441 0.067103,0.06437 0.047253,0.06437 -0.00471,0 -0.029822,-0.02511 -0.05581,-0.05581 z m -1.8254386,-0.08516 c 0.017906,-0.0072 0.0393,-0.0063 0.047542,0.002 0.00824,0.0082 -0.00641,0.0141 -0.032556,0.01303 -0.028896,-0.0012 -0.034774,-0.0071 -0.014986,-0.01499 z M 4.8127968,12.029574 c -0.030854,-0.03934 -0.029976,-0.04022 0.00937,-0.0094 0.041318,0.0324 0.054458,0.05277 0.034043,0.05277 -0.00515,0 -0.024685,-0.01953 -0.043408,-0.04341 z M 11.414008,9.7815858 c 0,-0.00515 0.01953,-0.024684 0.04341,-0.043408 0.03934,-0.030854 0.04022,-0.029977 0.0094,0.00937 -0.0324,0.041318 -0.05277,0.054458 -0.05277,0.034043 z M 6.7127429,9.5863122 6.5646912,9.431283 6.7197205,9.5793346 c 0.085266,0.081428 0.1550293,0.1511916 0.1550293,0.1550293 0,0.018328 -0.02448,-0.00404 -0.1620069,-0.1480517 z M 11.748871,9.4436853 c 0.02469,-0.027285 0.05048,-0.049609 0.0573,-0.049609 0.0068,0 -0.0078,0.022324 -0.03249,0.049609 -0.02469,0.027285 -0.05048,0.049609 -0.0573,0.049609 -0.0068,0 0.0078,-0.022324 0.03249,-0.049609 z M 6.3062003,9.0075362 c 0.00119,-0.028896 0.00707,-0.034774 0.014986,-0.014986 0.00717,0.017906 0.00628,0.0393 -0.00196,0.047542 -0.00824,0.00824 -0.014105,-0.00641 -0.013028,-0.032556 z M 10.459027,8.4763025 c 0.09477,-0.095498 0.177883,-0.1736328 0.184705,-0.1736328 0.0068,0 -0.06513,0.078135 -0.1599,0.1736328 -0.09477,0.095498 -0.177884,0.1736328 -0.184705,0.1736328 -0.0068,0 0.06513,-0.078135 0.1599,-0.1736328 z M 9.1260644,7.9626654 c 0.030855,-0.00593 0.075503,-0.00571 0.099219,5.005e-4 0.023715,0.00621 -0.00153,0.011063 -0.0561,0.010788 -0.05457,-2.753e-4 -0.073974,-0.00535 -0.043119,-0.011289 z M 12.608549,7.3352869 c 0,-0.034107 0.0056,-0.048059 0.01251,-0.031006 0.0069,0.017053 0.0069,0.044959 0,0.062012 -0.0069,0.017053 -0.01251,0.0031 -0.01251,-0.031006 z M 9.9567864,7.1740564 c 2.753e-4,-0.05457 0.00535,-0.073974 0.011288,-0.043119 0.00593,0.030855 0.00571,0.075503 -5.006e-4,0.099219 -0.00621,0.023715 -0.011063,-0.00153 -0.010787,-0.0561 z M 12.606591,6.9983566 c 0.0012,-0.028896 0.0071,-0.034774 0.01499,-0.014986 0.0072,0.017906 0.0063,0.0393 -0.002,0.047542 -0.0082,0.00824 -0.01411,-0.00641 -0.01303,-0.032556 z M 4.6719683,6.8267908 c 5.055e-4,-0.040928 0.00606,-0.054668 0.012354,-0.030534 0.00629,0.024134 0.00588,0.057621 -9.191e-4,0.074414 -0.00679,0.016794 -0.01194,-0.00295 -0.011435,-0.04388 z M 11.586793,4.7121912 11.451215,4.5695643 11.593842,4.7051427 c 0.07844,0.074568 0.142627,0.1387503 0.142627,0.142627 0,0.018411 -0.02372,-0.00307 -0.149676,-0.1355785 z M 5.8205506,3.9618494 c 0.024693,-0.027285 0.050477,-0.049609 0.057298,-0.049609 0.00682,0 -0.0078,0.022324 -0.032494,0.049609 -0.024693,0.027285 -0.050477,0.049609 -0.057298,0.049609 -0.00682,0 0.0078,-0.022324 0.032494,-0.049609 z M 12.318446,3.7820155 12.195355,3.6517909 12.32558,3.7748818 c 0.07162,0.0677 0.130224,0.1263011 0.130224,0.1302246 0,0.018509 -0.02298,-0.00208 -0.137358,-0.1230909 z M 8.9040833,3.7216628 c 0.017906,-0.00717 0.0393,-0.00628 0.047542,0.00196 0.00824,0.00824 -0.00641,0.014105 -0.032556,0.013028 -0.028896,-0.00119 -0.034774,-0.00707 -0.014986,-0.014986 z m 0.4960937,0 c 0.017906,-0.00717 0.0393,-0.00628 0.047542,0.00196 0.00824,0.00824 -0.00641,0.014105 -0.032556,0.013028 -0.028896,-0.00119 -0.034774,-0.00707 -0.014986,-0.014986 z M 6.1430116,3.6393885 c 0.024693,-0.027285 0.050477,-0.049609 0.057298,-0.049609 0.00682,0 -0.0078,0.022324 -0.032494,0.049609 -0.024693,0.027285 -0.050477,0.049609 -0.057298,0.049609 -0.00682,0 0.0078,-0.022324 0.032494,-0.049609 z M 5.510492,3.5029627 c 0.032041,-0.034106 0.063838,-0.062012 0.070659,-0.062012 0.00682,0 -0.013813,0.027905 -0.045855,0.062012 -0.032041,0.034107 -0.063838,0.062012 -0.070659,0.062012 -0.00682,0 0.013813,-0.027905 0.045855,-0.062012 z M 8.928888,2.4814285 c 0.017906,-0.00717 0.0393,-0.00628 0.047542,0.00196 0.00824,0.00824 -0.00641,0.014105 -0.032556,0.013028 C 8.914978,2.4952265 8.9091,2.4893465 8.928888,2.4814305 Z m 0.4081991,-2.45e-4 c 0.024134,-0.00629 0.057621,-0.00588 0.074414,9.191e-4 0.016794,0.00679 -0.00295,0.01194 -0.04388,0.011435 -0.040928,-5.056e-4 -0.054668,-0.00606 -0.030534,-0.012354 z M 9.1137139,1.9348704 c 0.037705,-0.0057 0.093515,-0.00555 0.1240234,3.386e-4 0.030508,0.00589 -3.41e-4,0.010552 -0.068554,0.010366 -0.068213,-1.862e-4 -0.093174,-0.005 -0.055469,-0.010705 z"
         id="path6" /><path
         style="fill:#a3a3a3;fill-opacity:1"
         d="m 8.2328065,14.038759 c 0.6582543,-0.0037 1.7353979,-0.0037 2.3936525,0 0.658254,0.0037 0.119682,0.0067 -1.1968264,0.0067 -1.3165088,0 -1.8550805,-0.003 -1.1968261,-0.0067 z m 4.1009325,-0.715207 c 0.0012,-0.0289 0.0071,-0.03477 0.01499,-0.01499 0.0072,0.0179 0.0063,0.0393 -0.002,0.04754 -0.0082,0.0082 -0.01411,-0.0064 -0.01303,-0.03256 z M 11.488422,9.7071717 c 0,-0.00515 0.01953,-0.024684 0.04341,-0.043408 0.03934,-0.030854 0.04022,-0.029977 0.0094,0.00937 -0.0324,0.041318 -0.05277,0.054458 -0.05277,0.034043 z m 0.16123,-0.1642677 c 0.02469,-0.027285 0.05048,-0.049609 0.0573,-0.049609 0.0068,0 -0.0078,0.022324 -0.03249,0.049609 -0.02469,0.027285 -0.05048,0.049609 -0.0573,0.049609 -0.0068,0 0.0078,-0.022324 0.03249,-0.049609 z M 8.843059,8.8301613 C 8.8001163,8.7246475 8.7498869,8.6304419 8.7314379,8.6208155 8.7129889,8.6111892 8.6362738,8.5765259 8.5609597,8.5437861 L 8.4240251,8.4842592 8.2273847,8.5681717 8.0307443,8.6520842 7.8568641,8.478204 7.682984,8.3043238 7.7624047,8.1140505 7.8418255,7.9237772 7.7757669,7.7546504 7.7097084,7.5855236 7.5146637,7.506901 7.319619,7.4282783 7.3266278,7.1675649 7.3336365,6.9068514 7.5196717,6.8356992 7.7057068,6.764547 7.7765488,6.5893781 7.8473907,6.4142091 7.7661973,6.2279891 7.6850038,6.0417692 7.86095,5.865823 8.0368961,5.6898769 l 0.1859021,0.081055 0.1859021,0.081055 0.1612299,-0.064502 c 0.088677,-0.035476 0.1715591,-0.064502 0.1841836,-0.064502 0.012624,0 0.056712,-0.086506 0.097971,-0.1922363 l 0.075018,-0.1922363 0.247721,-0.00703 0.2477209,-0.00703 0.071757,0.1906483 0.071757,0.1906483 0.1736328,0.071457 0.1736328,0.071457 0.1943537,-0.079112 0.194354,-0.079112 0.172651,0.1726511 0.172651,0.1726511 -0.08496,0.1984915 c -0.08118,0.1896582 -0.08323,0.2017405 -0.04616,0.2715019 0.02134,0.040156 0.05242,0.1120779 0.06907,0.1598269 0.02694,0.077247 0.05172,0.09542 0.224862,0.1648747 l 0.194586,0.078058 0.007,0.2599994 0.007,0.2599994 -0.199161,0.070764 c -0.195012,0.06929 -0.199957,0.073099 -0.237349,0.1828407 -0.021,0.061642 -0.05289,0.1386169 -0.07087,0.1710546 -0.02893,0.052221 -0.02341,0.080963 0.04826,0.2508951 l 0.08094,0.1919174 -0.177591,0.1757693 -0.177592,0.1757693 -0.186035,-0.080787 -0.1860347,-0.080787 -0.166382,0.073913 -0.166382,0.073913 -0.078252,0.1941248 -0.078252,0.1941248 -0.2514599,-5e-7 -0.25146,-5e-7 z M 9.520528,7.8801181 C 9.8553903,7.7168309 10.031505,7.3449032 9.941086,6.9919633 9.8748896,6.7335733 9.7165104,6.5413329 9.4805022,6.4329075 9.3083952,6.3538392 9.0148636,6.359394 8.8343201,6.4451359 8.6607812,6.5275512 8.5226782,6.6656542 8.4402629,6.8391932 8.354521,7.0197366 8.3489662,7.3132682 8.4280345,7.4853752 8.6246599,7.9133674 9.1000699,8.0851439 9.520528,7.8801181 Z m -3.7104215,0.085621 c 0.00119,-0.028896 0.00707,-0.034774 0.014986,-0.014986 0.00717,0.017906 0.00628,0.0393 -0.00196,0.047542 -0.00824,0.00824 -0.014105,-0.00641 -0.013028,-0.032556 z m 6.8019595,-0.804085 c 0,-0.075034 0.0046,-0.10573 0.01033,-0.068213 0.0057,0.037517 0.0057,0.098909 0,0.1364258 -0.0057,0.037517 -0.01033,0.00682 -0.01033,-0.068213 z m 1.041458,-0.1612305 c 1.86e-4,-0.068213 0.005,-0.093174 0.0107,-0.05547 0.0057,0.037705 0.0055,0.093515 -3.39e-4,0.1240235 -0.0059,0.030508 -0.01055,-3.411e-4 -0.01037,-0.068554 z M 5.7108878,6.8991378 c 0.00119,-0.028896 0.00707,-0.034774 0.014986,-0.014986 0.00717,0.017906 0.00628,0.0393 -0.00196,0.047542 -0.00824,0.00824 -0.014105,-0.00641 -0.013028,-0.032556 z M 4.6710492,6.7151697 c 0,-0.034106 0.00563,-0.048059 0.012511,-0.031006 0.00688,0.017053 0.00688,0.044958 0,0.062012 -0.00688,0.017053 -0.012511,0.0031 -0.012511,-0.031006 z M 12.477445,3.9432459 c -0.03085,-0.039342 -0.02998,-0.040219 0.0094,-0.00937 0.04132,0.032404 0.05446,0.052773 0.03404,0.052773 -0.0052,0 -0.02468,-0.019534 -0.04341,-0.043408 z M 8.9784974,3.7216628 c 0.017906,-0.00717 0.0393,-0.00628 0.047542,0.00196 0.00824,0.00824 -0.00641,0.014105 -0.032556,0.013028 -0.028896,-0.00119 -0.034774,-0.00707 -0.014986,-0.014986 z m 0.3472656,0 c 0.017906,-0.00717 0.0393,-0.00628 0.047542,0.00196 0.00824,0.00824 -0.00641,0.014105 -0.032556,0.013028 -0.028896,-0.00119 -0.034774,-0.00707 -0.014986,-0.014986 z M 5.5849061,3.4315859 c 0,-0.00515 0.019534,-0.024684 0.043408,-0.043408 0.039342,-0.030854 0.040219,-0.029977 0.00937,0.00937 -0.032404,0.041318 -0.052773,0.054458 -0.052773,0.034043 z M 8.8544739,2.4814285 c 0.017906,-0.00717 0.0393,-0.00628 0.047542,0.00196 0.00824,0.00824 -0.00641,0.014105 -0.032556,0.013028 -0.028896,-0.00119 -0.034774,-0.00707 -0.014986,-0.014986 z m 0.5953125,0 c 0.017906,-0.00717 0.0393,-0.00628 0.047542,0.00196 0.00824,0.00824 -0.00641,0.014105 -0.032556,0.013028 -0.028896,-0.00119 -0.034774,-0.00707 -0.014986,-0.014986 z"
         id="path5" /><path
         style="fill:#8c8c8c;fill-opacity:1"
         d="m 12.335698,13.238802 c 0,-0.03411 0.0056,-0.04806 0.01251,-0.03101 0.0069,0.01705 0.0069,0.04496 0,0.06201 -0.0069,0.01705 -0.01251,0.0031 -0.01251,-0.03101 z m -0.522857,-0.237711 c 0.0012,-0.0289 0.0071,-0.03477 0.01499,-0.01499 0.0072,0.01791 0.0063,0.0393 -0.002,0.04754 -0.0082,0.0082 -0.01411,-0.0064 -0.01303,-0.03256 z m -2.412664,-2.40853 c 0.017906,-0.0072 0.0393,-0.0063 0.047542,0.002 0.00824,0.0082 -0.00641,0.01411 -0.032556,0.01303 -0.028896,-0.0012 -0.034774,-0.0071 -0.014986,-0.01499 z M 3.8175721,10.070445 c 0.057981,-0.0052 0.1528589,-0.0052 0.2108399,0 0.057981,0.0052 0.010542,0.0095 -0.1054199,0.0095 -0.115962,0 -0.1634009,-0.0043 -0.10542,-0.0095 z m 5.3210775,9.73e-4 c 0.024134,-0.0063 0.05762,-0.0059 0.074414,9.19e-4 0.016794,0.0068 -0.00295,0.01194 -0.04388,0.01144 -0.040928,-5.06e-4 -0.054668,-0.0061 -0.030534,-0.01235 z M 3.6024894,9.4044112 c 0.00119,-0.028896 0.00707,-0.034774 0.014986,-0.014986 0.00717,0.017906 0.00628,0.0393 -0.00196,0.047542 -0.00824,0.00824 -0.014105,-0.00641 -0.013028,-0.032556 z M 13.652685,7.1988611 c 2.75e-4,-0.05457 0.0054,-0.073974 0.01129,-0.043119 0.0059,0.030855 0.0057,0.075503 -5.01e-4,0.099219 -0.0062,0.023715 -0.01106,-0.00153 -0.01079,-0.0561 z m -5.01e-4,-0.3844726 c 0,-0.047749 0.0051,-0.067283 0.01134,-0.043408 0.0062,0.023875 0.0062,0.062942 0,0.086816 -0.0062,0.023875 -0.01134,0.00434 -0.01134,-0.043408 z M 6.0313905,5.6888124 c 0,-0.00515 0.019534,-0.024684 0.043408,-0.043408 0.039342,-0.030854 0.040219,-0.029977 0.00937,0.00937 -0.032404,0.041318 -0.052773,0.054458 -0.052773,0.034043 z M 9.1386496,4.2423163 c 0.024134,-0.00629 0.05762,-0.00588 0.074414,9.191e-4 0.016794,0.00679 -0.00295,0.01194 -0.04388,0.011435 -0.040928,-5.055e-4 -0.054668,-0.00606 -0.030534,-0.012354 z M 9.1014147,3.7206305 c 0.044583,-0.00552 0.1115554,-0.00541 0.1488282,2.532e-4 0.037273,0.00566 7.96e-4,0.010177 -0.08106,0.010037 -0.081855,-1.393e-4 -0.1123514,-0.00477 -0.067769,-0.010291 z M 8.7800599,2.4814285 c 0.017906,-0.00717 0.0393,-0.00628 0.047542,0.00196 0.00824,0.00824 -0.00641,0.014105 -0.032556,0.013028 -0.028896,-0.00119 -0.034774,-0.00707 -0.014986,-0.014986 z"
         id="path4" /><path
         style="fill:#767676;fill-opacity:1"
         d="m 11.814799,13.089974 c 0,-0.03411 0.0056,-0.04806 0.01251,-0.03101 0.0069,0.01705 0.0069,0.04496 0,0.06201 -0.0069,0.01705 -0.01251,0.0031 -0.01251,-0.03101 z M 8.9769471,10.593078 c 0.017053,-0.0069 0.044958,-0.0069 0.062012,0 0.017053,0.0069 0.0031,0.01251 -0.031006,0.01251 -0.034106,0 -0.048059,-0.0056 -0.031006,-0.01251 z m 0.3224609,0 c 0.017053,-0.0069 0.044958,-0.0069 0.062012,0 0.017053,0.0069 0.0031,0.01251 -0.031006,0.01251 -0.034107,0 -0.048059,-0.0056 -0.031006,-0.01251 z M 9.0265564,10.072179 c 0.017053,-0.0069 0.044958,-0.0069 0.062012,0 0.017053,0.0069 0.0031,0.01251 -0.031006,0.01251 -0.034106,0 -0.048059,-0.0056 -0.031006,-0.01251 z m 0.2232422,0 c 0.017053,-0.0069 0.044958,-0.0069 0.062012,0 0.017053,0.0069 0.0031,0.01251 -0.031006,0.01251 -0.034107,0 -0.048059,-0.0056 -0.031006,-0.01251 z M 3.9033033,9.5493395 c 0.091491,-0.00476 0.2477601,-0.00479 0.3472657,-7.03e-5 0.099506,0.00472 0.02465,0.00861 -0.1663465,0.00865 -0.1909961,3.87e-5 -0.2724097,-0.00382 -0.1809192,-0.00858 z M 13.650346,7.3352869 c 0,-0.034107 0.0056,-0.048059 0.01251,-0.031006 0.0069,0.017053 0.0069,0.044959 0,0.062012 -0.0069,0.017053 -0.01251,0.0031 -0.01251,-0.031006 z m 0.51894,-0.064079 c 0.0012,-0.028896 0.0071,-0.034774 0.01499,-0.014986 0.0072,0.017906 0.0063,0.0393 -0.002,0.047542 -0.0082,0.00824 -0.01411,-0.00641 -0.01303,-0.032556 z M 13.648388,6.7007003 c 0.0012,-0.028896 0.0071,-0.034774 0.01499,-0.014986 0.0072,0.017906 0.0063,0.0393 -0.002,0.047542 -0.0082,0.00824 -0.0141,-0.00641 -0.01303,-0.032556 z M 9.0265564,4.243078 c 0.017053,-0.00688 0.044958,-0.00688 0.062012,0 0.017053,0.00688 0.0031,0.012511 -0.031006,0.012511 -0.034106,0 -0.048059,-0.00563 -0.031006,-0.012511 z m 0.2232422,0 c 0.017053,-0.00688 0.044958,-0.00688 0.062012,0 0.017053,0.00688 0.0031,0.012511 -0.031006,0.012511 -0.034107,0 -0.048059,-0.00563 -0.031006,-0.012511 z M 5.9559398,3.8068201 c 0.060821,-0.064802 0.1138414,-0.1178222 0.1178222,-0.1178222 0.018625,0 -0.00107,0.02227 -0.1105844,0.1250601 L 5.8453553,3.9246424 Z M 12.87432,3.5959803 c -0.03085,-0.039342 -0.02998,-0.040219 0.0094,-0.00937 0.02388,0.018724 0.04341,0.038257 0.04341,0.043408 0,0.020415 -0.02037,0.00728 -0.05277,-0.034043 z"
         id="path3" /><path
         style="fill:#606060;fill-opacity:1"
         d="m 11.817138,13.2264 c 2.75e-4,-0.05457 0.0054,-0.07397 0.01129,-0.04312 0.0059,0.03086 0.0057,0.0755 -5.01e-4,0.09922 -0.0062,0.02371 -0.01106,-0.0015 -0.01079,-0.0561 z m -7.3751249,-0.824756 -0.060134,-0.06821 0.068213,0.06014 c 0.063755,0.0562 0.079588,0.07629 0.060134,0.07629 -0.00444,0 -0.035139,-0.0307 -0.068213,-0.06821 z m 0.345979,-0.37207 c -0.030854,-0.03934 -0.029976,-0.04022 0.00937,-0.0094 0.041318,0.0324 0.054458,0.05277 0.034043,0.05277 -0.00515,0 -0.024685,-0.01953 -0.043408,-0.04341 z m 4.3257218,-1.437868 c 0.037705,-0.0057 0.093515,-0.0055 0.1240234,3.39e-4 0.030508,0.0059 -3.41e-4,0.01055 -0.068554,0.01037 -0.068213,-1.86e-4 -0.093174,-0.005 -0.055469,-0.0107 z M 11.389203,9.7815858 c 0,-0.00515 0.01953,-0.024684 0.04341,-0.043408 0.03934,-0.030854 0.04022,-0.029977 0.0094,0.00937 -0.0324,0.041318 -0.05277,0.054458 -0.05277,0.034043 z M 6.7375476,9.5863122 6.5894959,9.431283 6.7445252,9.5793346 c 0.085266,0.081428 0.1550293,0.1511916 0.1550293,0.1550293 0,0.018328 -0.02448,-0.00404 -0.1620069,-0.1480517 z M 11.711664,9.4591248 c 0,-0.00515 0.01953,-0.024684 0.04341,-0.043408 0.03934,-0.030854 0.04022,-0.029976 0.0094,0.00937 -0.0324,0.041318 -0.05277,0.054458 -0.05277,0.034043 z M 7.0844226,9.2142419 6.9863709,9.108822 7.0917908,9.2068737 c 0.098039,0.091187 0.1168183,0.1127882 0.098052,0.1127882 -0.00405,0 -0.051492,-0.047439 -0.1054202,-0.10542 z M 6.229828,8.1692811 c 0,-0.00515 0.019534,-0.024684 0.043408,-0.043408 0.039342,-0.030854 0.040219,-0.029976 0.00937,0.00937 -0.032404,0.041318 -0.052773,0.054458 -0.052773,0.034043 z m 7.41856,-0.7492449 c 0.0012,-0.028896 0.0071,-0.034774 0.01499,-0.014986 0.0072,0.017906 0.0063,0.0393 -0.002,0.047542 -0.0082,0.00824 -0.0141,-0.00641 -0.01303,-0.032556 z m 0.524695,-0.2583821 c 0,-0.047749 0.0051,-0.067283 0.01134,-0.043408 0.0062,0.023874 0.0062,0.062942 0,0.086816 -0.0062,0.023874 -0.01134,0.00434 -0.01134,-0.043408 z m 10e-4,-0.2976563 c 0,-0.061392 0.0048,-0.086506 0.01075,-0.05581 0.0059,0.030696 0.0059,0.080925 0,0.1116211 -0.0059,0.030696 -0.01075,0.00558 -0.01075,-0.055811 z M 13.648388,6.6262863 c 0.0012,-0.028896 0.0071,-0.034774 0.01499,-0.014986 0.0072,0.017906 0.0063,0.0393 -0.002,0.047542 -0.0082,0.00824 -0.0141,-0.00641 -0.01303,-0.032556 z m -2.422772,-1.5296224 -0.04725,-0.055811 0.05581,0.047253 c 0.03069,0.025989 0.05581,0.051104 0.05581,0.05581 0,0.01985 -0.01996,0.0052 -0.06437,-0.047253 z m 0.34869,-0.3720703 -0.123091,-0.1302246 0.130224,0.1230909 c 0.07162,0.0677 0.130225,0.1263012 0.130225,0.1302247 0,0.018509 -0.02298,-0.00208 -0.137358,-0.123091 z m -4.7948584,0.05581 c 0,-0.034106 0.00563,-0.048059 0.012511,-0.031006 0.00688,0.017053 0.00688,0.044958 0,0.062012 -0.00688,0.017053 -0.012511,0.0031 -0.012511,-0.031006 z M 12.601469,4.0672694 c -0.03085,-0.039342 -0.02998,-0.040219 0.0094,-0.00937 0.02387,0.018724 0.04341,0.038257 0.04341,0.043408 0,0.020415 -0.02037,0.00728 -0.05277,-0.034043 z M 5.7833436,3.977289 c 0,-0.00515 0.019534,-0.024684 0.043408,-0.043408 0.039342,-0.030854 0.040219,-0.029976 0.00937,0.00937 -0.032404,0.041318 -0.052773,0.054458 -0.052773,0.034043 z M 12.331781,3.7758143 c -0.06025,-0.061392 -0.103967,-0.1116211 -0.09714,-0.1116211 0.0068,0 0.0617,0.050229 0.12195,0.1116211 0.06025,0.061392 0.103966,0.1116211 0.09714,0.1116211 -0.0068,0 -0.0617,-0.05023 -0.12195,-0.1116211 z M 6.1182069,3.6393885 c 0.024693,-0.027285 0.050477,-0.049609 0.057298,-0.049609 0.00682,0 -0.0078,0.022324 -0.032493,0.049609 -0.024693,0.027285 -0.050477,0.049609 -0.057298,0.049609 -0.00682,0 0.0078,-0.022324 0.032494,-0.049609 z M 12.799906,3.5215662 c -0.03085,-0.039342 -0.02998,-0.040219 0.0094,-0.00937 0.04132,0.032404 0.05446,0.052773 0.03404,0.052773 -0.0052,0 -0.02468,-0.019534 -0.04341,-0.043408 z M 7.2917786,3.4984206 c 0.017906,-0.00717 0.0393,-0.00628 0.047542,0.00196 0.00824,0.00824 -0.00641,0.014105 -0.032556,0.013028 -0.028896,-0.00119 -0.034774,-0.00707 -0.014986,-0.014986 z m 5.3488934,-0.1380848 -0.09805,-0.1054199 0.10542,0.098052 c 0.05798,0.053928 0.10542,0.1013674 0.10542,0.1054199 0,0.018767 -0.0216,-1.21e-5 -0.112789,-0.098052 z M 5.7833436,3.2579531 c 0,-0.00515 0.019534,-0.024685 0.043408,-0.043408 0.039342,-0.030854 0.040219,-0.029977 0.00937,0.00937 -0.032404,0.041318 -0.052773,0.054458 -0.052773,0.034043 z M 9.1009705,2.4560627 c 0.030696,-0.00591 0.080925,-0.00591 0.1116211,0 0.030696,0.00591 0.00558,0.01075 -0.055811,0.01075 -0.061392,0 -0.086506,-0.00484 -0.05581,-0.01075 z"
         id="path2" /><path
         style="fill:#494949;fill-opacity:1"
         d="M 6.7063734,14.55026 C 6.6563934,14.53585 6.6060066,14.49589 6.5762415,14.447077 6.5305925,14.372207 6.5276645,14.317795 6.5275765,13.54266 l -9.27e-5,-0.824756 H 5.8133597 c -0.7572903,0 -0.8814976,-0.01428 -1.1017553,-0.126644 C 4.5684922,12.518249 4.3653175,12.319671 4.2875646,12.176814 4.1574047,11.937667 4.1462342,11.838091 4.1462342,10.916965 v -0.847937 l -0.291455,-0.0098 C 3.6181941,10.051239 3.5446449,10.039482 3.4641053,9.9967583 3.2428301,9.8793796 3.1001962,9.6443929 3.0978313,9.3933285 3.0960774,9.2071293 3.1500799,9.0953502 3.7086328,8.1290369 L 4.1459333,7.3724939 4.1460838,7.0712647 C 4.1466267,5.9843637 4.4297457,5.034873 5.0113391,4.1694747 5.7789483,3.027289 6.9408594,2.2757511 8.329476,2.0232644 c 0.3915886,-0.071201 1.2303035,-0.077807 1.6086527,-0.01267 1.6693313,0.2873937 3.0239853,1.2998865 3.7433633,2.7978565 0.239584,0.4988902 0.374364,0.9387997 0.44862,1.4642535 0.05262,0.3723372 0.05271,1.1255738 1.85e-4,1.520489 -0.125217,0.9414706 -0.384775,1.6604764 -0.921613,2.5529766 -0.463085,0.769884 -0.689471,1.38826 -0.818339,2.235308 -0.0244,0.160343 -0.04254,0.521638 -0.05131,1.021824 -0.01538,0.876837 -0.02001,0.899006 -0.198201,0.948488 -0.122341,0.03397 -5.3164266,0.03251 -5.4344616,-0.0015 z m 5.1047306,-0.784358 c 0.0011,-1.482231 0.273043,-2.513837 0.964502,-3.65918 0.460625,-0.7629868 0.707685,-1.4224232 0.838595,-2.2383292 0.06816,-0.4247973 0.06195,-1.3174648 -0.01185,-1.7049205 C 13.053894,3.2842571 10.028842,1.6807261 7.3431509,2.845574 6.2355212,3.3259792 5.3241143,4.3078953 4.9180921,5.4582428 4.7358914,5.9744561 4.6671327,6.4031514 4.6671327,7.0229179 c 0,0.5207549 0.063956,0.3595673 -0.6052429,1.5253798 -0.2537473,0.4420534 -0.4613587,0.8291265 -0.4613587,0.8601625 0,0.031417 0.028969,0.079216 0.065357,0.1078388 0.059584,0.046869 0.098531,0.05141 0.4409651,0.05141 0.3071078,0 0.3861402,0.00738 0.4333571,0.040449 0.1219309,0.085404 0.1269225,0.1328912 0.1269225,1.207489 0,0.991052 5.82e-4,1.002586 0.055864,1.107125 0.030725,0.0581 0.1043491,0.140783 0.1636091,0.183736 l 0.1077455,0.07809 0.9339983,0.0124 c 0.7426086,0.0099 0.944682,0.01951 0.9861359,0.04708 0.1198216,0.0797 0.1210522,0.08901 0.1289222,0.976112 l 0.00743,0.837158 H 9.4308585 11.810883 Z M 8.5862732,10.544541 C 8.1262942,10.460145 7.6439186,10.264199 7.2412319,9.9981728 7.0219086,9.8532814 6.4873885,9.3277184 6.3916838,9.1628607 6.3278883,9.0529686 6.3246269,9.035353 6.3514817,8.9457194 6.3860129,8.8304645 6.4757382,8.7633631 6.590954,8.766629 6.7000685,8.769719 6.740581,8.801536 6.9204645,9.0253867 7.4770513,9.7180161 8.4411828,10.139476 9.329042,10.078272 10.895235,9.9703063 12.083734,8.7119448 12.083734,7.1616541 12.083734,5.2501355 10.28878,3.8623467 8.4292191,4.3361255 8.227317,4.3875661 7.8420553,4.5434981 7.7240822,4.6215247 l -0.067985,0.044965 0.1240234,0.033747 c 0.4144295,0.1127666 0.4691501,0.1378005 0.5174765,0.2367385 0.041458,0.084877 0.042642,0.1039255 0.011563,0.1860351 -0.022745,0.060091 -0.064759,0.107765 -0.1224531,0.1389512 L 8.0988788,5.3094361 7.52169,5.1653805 C 6.8604429,5.0003455 6.8003358,4.9698383 6.8003358,4.7992596 c 0,-0.09311 0.2169182,-0.9874865 0.2765049,-1.1400584 0.035976,-0.092116 0.1242264,-0.1438361 0.2454288,-0.1438361 0.079663,0 0.1178771,0.015878 0.1745056,0.072506 0.088232,0.088232 0.093448,0.1787259 0.023217,0.4027742 C 7.4928831,4.0771273 7.4705581,4.1563965 7.4703821,4.1668 7.4702061,4.177203 7.5462571,4.147344 7.6393836,4.100446 7.8649004,3.986878 8.249565,3.8554857 8.5242615,3.798193 8.8296146,3.734506 9.4978413,3.733475 9.8101185,3.796213 c 0.6571455,0.1320146 1.2409355,0.43511 1.7197745,0.892883 0.525194,0.5020888 0.849195,1.0860233 1.004607,1.8105645 0.07128,0.332311 0.07702,0.9603348 0.0118,1.2905303 -0.263026,1.3315439 -1.231219,2.3586032 -2.546155,2.7009642 -0.2566131,0.06681 -0.3313271,0.07516 -0.7441402,0.08317 -0.3414246,0.0066 -0.5128558,-10e-4 -0.6697266,-0.02978 z M 6.0118422,8.1982126 C 5.8288759,8.1500384 5.7832467,7.9094006 5.9317016,7.7755701 6.01678,7.6988728 6.0988446,7.6896571 6.2055198,7.744821 c 0.091232,0.047178 0.1235269,0.1070786 0.1235269,0.2291163 0,0.073076 -0.016401,0.1114258 -0.068213,0.1594965 -0.083391,0.07737 -0.1426324,0.092783 -0.2489915,0.064779 z M 5.8949647,7.1382048 C 5.685791,7.0525917 5.6981101,6.7267247 5.9126218,6.6711392 6.0225036,6.6426659 6.0928569,6.6593776 6.1644338,6.7309545 6.3543756,6.9208963 6.1433258,7.239857 5.8949647,7.1382048 Z M 6.0790918,6.0225465 c -0.056865,-0.056865 -0.072506,-0.094733 -0.072506,-0.1755408 0,-0.080808 0.015641,-0.1186762 0.072506,-0.1755409 0.15978,-0.15978 0.4235877,-0.050454 0.4235877,0.1755409 0,0.080808 -0.015641,0.1186761 -0.072506,0.1755408 -0.056865,0.056865 -0.094733,0.072506 -0.1755408,0.072506 -0.080808,0 -0.1186762,-0.015641 -0.1755409,-0.072506 z"
         id="path1" /></g><rect
       style="opacity:1;fill:none;stroke:#ffffff;stroke-width:1.14996;stroke-linecap:round;stroke-opacity:1"
       id="rect7"
       width="15.67945"
       height="15.730029"
       x="0.63252741"
       y="0.58194679" /></g></svg>
