<?xml version="1.0" encoding="UTF-8" standalone="no"?>
<!-- Created with Inkscape (http://www.inkscape.org/) -->

<svg
   width="64"
   height="64"
   viewBox="0 0 16.933333 16.933333"
   version="1.1"
   id="svg1"
   xml:space="preserve"
   sodipodi:docname="startup.svg"
   inkscape:version="1.3.2 (091e20e, 2023-11-25, custom)"
   xmlns:inkscape="http://www.inkscape.org/namespaces/inkscape"
   xmlns:sodipodi="http://sodipodi.sourceforge.net/DTD/sodipodi-0.dtd"
   xmlns="http://www.w3.org/2000/svg"
   xmlns:svg="http://www.w3.org/2000/svg"><sodipodi:namedview
     id="namedview1"
     pagecolor="#ffffff"
     bordercolor="#000000"
     borderopacity="0.25"
     inkscape:showpageshadow="2"
     inkscape:pageopacity="0.0"
     inkscape:pagecheckerboard="0"
     inkscape:deskcolor="#d1d1d1"
     showgrid="false"
     inkscape:zoom="8.109375"
     inkscape:cx="31.938343"
     inkscape:cy="32"
     inkscape:window-width="1366"
     inkscape:window-height="715"
     inkscape:window-x="-8"
     inkscape:window-y="-8"
     inkscape:window-maximized="1"
     inkscape:current-layer="svg1" /><defs
     id="defs1" /><path
     style="fill:#b9b9b9;fill-opacity:1"
     d="m 7.0739654,14.495503 c 0.3228251,-0.0045 0.8392343,-0.0045 1.1475759,2.6e-5 0.3083417,0.0046 0.044212,0.0083 -0.5869548,0.0083 -0.6311667,-1.4e-5 -0.8834463,-0.0037 -0.5606211,-0.0083 z m 1.8770391,-1.875474 c 0,-0.991103 0.0053,-1.396554 0.011776,-0.901003 0.00648,0.495552 0.00648,1.306454 0,1.802005 -0.00648,0.495551 -0.011776,0.0901 -0.011776,-0.901002 z M 2.61117,12.199616 c 0.3228251,-0.0045 0.8392343,-0.0045 1.147576,2.6e-5 0.3083416,0.0046 0.044212,0.0083 -0.5869548,0.0083 -0.6311668,-1.5e-5 -0.8834463,-0.0037 -0.5606212,-0.0083 z M 1.5779357,12.076022 c 0,-0.0055 0.033471,-0.02657 0.07438,-0.04672 0.067412,-0.03321 0.068915,-0.03226 0.016047,0.01008 -0.055524,0.04447 -0.090427,0.05861 -0.090427,0.03664 z M 11.531711,9.3164397 c 0.296671,-0.00458 0.793954,-0.0046 1.105073,-2.77e-5 0.311119,0.00457 0.06839,0.00832 -0.539402,0.00833 -0.607791,1.53e-5 -0.862343,-0.00372 -0.565671,-0.0083 z m 0.565671,-1.0746149 -0.59504,-0.015653 0.581906,-0.00552 c 0.351908,-0.00334 0.592287,0.00503 0.608173,0.021175 0.01445,0.014683 0.02036,0.024212 0.01313,0.021175 -0.0072,-0.00304 -0.280902,-0.012565 -0.608173,-0.021175 z m 2.75215,-0.3337046 c 4.71e-4,-0.058732 0.0092,-0.079615 0.01934,-0.046407 0.01017,0.033208 0.0098,0.081261 -8.58e-4,0.1067855 -0.01064,0.025524 -0.01896,-0.00165 -0.01848,-0.060378 z m 0.417665,-0.2157956 c 0.002,-0.0311 0.01211,-0.037426 0.02568,-0.016129 0.01228,0.019271 0.01077,0.042297 -0.0034,0.051168 -0.01412,0.00887 -0.02417,-0.0069 -0.02232,-0.035039 z m -1.65761,-1.4949965 c 0.002,-0.0311 0.01211,-0.037426 0.02568,-0.016129 0.01228,0.019271 0.01077,0.042297 -0.0034,0.051168 -0.01412,0.00887 -0.02417,-0.0069 -0.02232,-0.035039 z m 0.04586,-0.3314799 c 0,-0.036708 0.0096,-0.051724 0.02144,-0.03337 0.01179,0.018354 0.01179,0.048387 0,0.066741 -0.01179,0.018354 -0.02144,0.00334 -0.02144,-0.03337 z m -3.570236,-0.080089 c 0,-0.036708 0.0096,-0.051724 0.02144,-0.03337 0.01179,0.018354 0.01179,0.048387 0,0.066741 -0.01179,0.018354 -0.02144,0.00334 -0.02144,-0.033371 z m 0.434216,-0.44049 c 9.6e-5,-0.161513 0.0071,-0.2241445 0.01556,-0.1391811 0.0085,0.084963 0.0084,0.2171103 -1.75e-4,0.29366 -0.0086,0.07655 -0.01548,0.00703 -0.01538,-0.1544789 z m 3.611927,-0.026696 c -1.3e-4,-0.1321471 0.0071,-0.189573 0.01597,-0.1276133 0.0089,0.06196 0.009,0.17008 2.36e-4,0.2402673 -0.0088,0.070187 -0.01608,0.019493 -0.01621,-0.112654 z m -4.0495,-0.3759743 c 0.002,-0.0311 0.01211,-0.037426 0.02568,-0.016129 0.01228,0.019271 0.01077,0.042297 -0.0034,0.051168 -0.01412,0.00887 -0.02417,-0.0069 -0.02232,-0.035039 z m 0.467531,-0.1601781 c 0.002,-0.0311 0.01211,-0.037426 0.02568,-0.016129 0.01228,0.019271 0.01077,0.042297 -0.0034,0.051168 -0.01412,0.00887 -0.02417,-0.0069 -0.02232,-0.035039 z M 10.93191,4.5154571 c 0.002,-0.0311 0.01211,-0.037426 0.02568,-0.016129 0.01228,0.019271 0.01077,0.042297 -0.0034,0.051168 -0.01412,0.00887 -0.02417,-0.0069 -0.02232,-0.035039 z m 0,-0.1334818 c 0.002,-0.0311 0.01211,-0.037426 0.02568,-0.016129 0.01228,0.019272 0.01077,0.042297 -0.0034,0.051168 -0.01412,0.00887 -0.02417,-0.0069 -0.02232,-0.035039 z M 11.226074,3.960327 c 0,-0.00554 0.03347,-0.026567 0.07438,-0.046719 0.06741,-0.033207 0.06892,-0.032263 0.01605,0.010079 -0.05552,0.044469 -0.09043,0.058611 -0.09043,0.03664 z m 0.839431,-0.2478685 c 0.02922,-0.00741 0.07704,-0.00741 0.106257,0 0.02922,0.00741 0.0053,0.013465 -0.05313,0.013465 -0.05844,0 -0.08235,-0.00606 -0.05313,-0.013465 z M 11.918027,2.5892359 c 0.111744,-0.00552 0.283881,-0.00545 0.382526,1.479e-4 0.09864,0.0056 0.0072,0.010113 -0.203171,0.010032 -0.210389,-8.14e-5 -0.291099,-0.00466 -0.179355,-0.01018 z"
     id="path3" /><path
     style="fill:#8c8c8c;fill-opacity:1;stroke-width:1.02658331;stroke-dasharray:none"
     d="m 0.94801483,15.539429 c -0.065748,-0.0413 -0.065748,-0.161595 0,-0.202892 0.03926,-0.02466 1.67771427,-0.03204 7.11618497,-0.03204 6.3662232,0 7.0717902,0.0042 7.1319732,0.04195 0.0853,0.05358 0.0853,0.12948 0,0.183061 -0.06018,0.0378 -0.76575,0.04195 -7.1319732,0.04195 -5.4384707,0 -7.07692477,-0.0074 -7.11618497,-0.03204 z M 2.2996262,14.687771 c -0.058429,-0.01495 -0.1510965,-0.0535 -0.2059268,-0.08565 -0.2201069,-0.12908 -0.2191232,-0.123184 -0.2191232,-1.313192 0,-1.232284 -0.0066,-1.201074 0.2834505,-1.340113 l 0.1560314,-0.07479 1.2359807,-0.0077 c 1.215875,-0.0076 1.239088,-0.0067 1.427068,0.05339 0.125818,0.04022 0.223573,0.09756 0.286195,0.167875 0.09411,0.105669 0.09511,0.11819 0.09581,1.197302 7.79e-4,1.215033 0.0024,1.207455 -0.288786,1.347034 l -0.150015,0.07191 -1.257223,0.0056 c -0.7768375,0.0034 -1.2978152,-0.0048 -1.3634579,-0.02163 z m 2.5574256,-0.281736 c 0.07282,-0.04139 0.07773,-0.111291 0.07773,-1.107899 0,-1.028122 -0.0028,-1.065503 -0.08501,-1.117109 -0.08079,-0.05075 -0.141676,-0.05339 -1.227873,-0.05339 -1.0617526,0 -1.1499884,0.0036 -1.2432068,0.05101 l -0.1003399,0.05101 -0.012035,1.038812 c -0.011834,1.021532 -0.010546,1.040002 0.077465,1.110279 l 0.089499,0.07147 h 1.1730217 c 1.031863,0 1.182375,-0.0053 1.250748,-0.04418 z m 1.90537,0.281736 c -0.05843,-0.01495 -0.151097,-0.0535 -0.205927,-0.08565 -0.226697,-0.132945 -0.219135,-0.06159 -0.218964,-2.066039 1.54e-4,-1.812291 0.0025,-1.865783 0.08462,-1.950404 0.04645,-0.04785 0.146793,-0.111153 0.222981,-0.140664 0.132118,-0.05118 0.1998,-0.05332 1.464003,-0.04647 l 1.32548,0.0072 0.135476,0.08009 c 0.261411,0.154538 0.252515,0.08159 0.252515,2.070751 0,2.024224 0.0131,1.930326 -0.289485,2.075367 l -0.150015,0.07191 -1.257223,0.0056 c -0.776838,0.0034 -1.297816,-0.0048 -1.363458,-0.02163 z m 2.550147,-0.290946 c 0.08332,-0.05234 0.08501,-0.08899 0.08501,-1.85126 0,-1.794055 -1.9e-4,-1.797975 -0.0895,-1.848723 -0.08342,-0.0474 -0.168487,-0.05086 -1.252338,-0.05086 -1.059662,0 -1.16957,0.0042 -1.238714,0.04767 -0.07133,0.04482 -0.07588,0.155398 -0.07588,1.84592 0,1.730889 0.003,1.800354 0.08097,1.854444 0.07855,0.05452 0.115623,0.0562 1.243207,0.0562 1.10557,0 1.166386,-0.0026 1.247246,-0.05339 z m 1.9126492,0.290946 c -0.05843,-0.01495 -0.151097,-0.0535 -0.205927,-0.08565 -0.229479,-0.134576 -0.219123,-0.004 -0.219123,-2.762871 V 9.2790179 l 0.09578,-0.089268 c 0.05268,-0.049097 0.162652,-0.113944 0.244391,-0.1441039 0.140843,-0.051969 0.214184,-0.054836 1.402448,-0.054836 1.232492,0 1.256495,0.00104 1.410203,0.061074 0.09179,0.035851 0.192722,0.1082397 0.244391,0.175281 0.08712,0.113036 0.08802,0.1400252 0.08802,2.631225 0,2.801337 0.0183,2.626 -0.289485,2.773535 l -0.150014,0.07191 -1.257223,0.0056 c -0.776838,0.0034 -1.297816,-0.0048 -1.363458,-0.02163 z m 2.54069,-0.279112 0.09446,-0.04156 v -2.502842 c 0,-2.1184133 -0.0093,-2.5108025 -0.06028,-2.554664 -0.05672,-0.048766 -0.128977,-0.052284 -1.225544,-0.05968 -1.103403,-0.00744 -1.170718,-0.00509 -1.267936,0.044355 l -0.10267,0.052214 -0.01127,2.481012 c -0.01127,2.480599 -0.01126,2.481023 0.07747,2.551866 l 0.08873,0.07086 h 1.156285 c 0.97774,0 1.170872,-0.0064 1.250749,-0.04156 z M 11.291986,8.6151542 c -0.09402,-0.059055 -0.08603,-0.08877 0.08322,-0.3096 l 0.150013,-0.1957241 -0.10622,-0.058089 c -0.05842,-0.031949 -0.141556,-0.094584 -0.184742,-0.1391896 l -0.07852,-0.0811 -0.21392,0.090487 c -0.117656,0.049767 -0.324021,0.1692551 -0.458589,0.2655284 -0.271554,0.1942762 -0.433913,0.2422725 -0.6769582,0.2001214 -0.353599,-0.061324 -0.450732,-0.1844716 -0.450711,-0.5714182 4e-5,-0.7057495 0.373338,-1.4120654 1.0028692,-1.8975266 l 0.188195,-0.1451262 -0.02714,-0.2867955 c -0.08736,-0.9232441 0.373896,-2.0708682 1.227297,-3.0535936 0.314096,-0.3616937 0.585167,-0.4715446 0.980169,-0.3972109 0.26704,0.050253 0.422431,0.1778999 0.791245,0.6499719 0.720183,0.9218162 1.019866,1.6937896 1.021439,2.6311884 l 7.78e-4,0.4642039 0.230945,0.189857 c 0.610699,0.5020493 0.915171,1.1109852 0.921068,1.8421127 0.0024,0.2983306 -0.008,0.3536086 -0.07784,0.4123356 -0.136265,0.1146367 -0.29182,0.171836 -0.467315,0.171836 -0.22402,0 -0.356247,-0.049544 -0.557865,-0.2090245 -0.09387,-0.074252 -0.285919,-0.1857794 -0.426775,-0.2478397 l -0.256103,-0.1128369 -0.06474,0.07863 c -0.03561,0.043247 -0.11448,0.1032075 -0.175279,0.1332464 -0.124251,0.061388 -0.11939,0.090491 0.05059,0.3029376 0.111038,0.138775 0.127727,0.2335555 0.04975,0.2825341 -0.03722,0.023376 -0.369572,0.032036 -1.229546,0.032036 -1.014731,0 -1.187825,-0.00583 -1.245332,-0.041951 z M 13.24428,8.3434233 C 13.2277,8.3177283 13.19491,8.2633463 13.17142,8.2225742 l -0.04271,-0.074131 -0.592599,0.00739 -0.592598,0.00739 -0.08081,0.1134595 -0.08081,0.1134596 h 0.746268 c 0.693881,0 0.744152,-0.00328 0.716123,-0.046719 z M 10.219594,7.9777577 c 0.133142,-0.094664 0.366054,-0.2224774 0.517582,-0.2840291 0.151528,-0.061552 0.275454,-0.1132428 0.275391,-0.114869 -6.3e-5,-0.00163 -0.05706,-0.1444362 -0.126651,-0.3173555 -0.06959,-0.1729192 -0.164656,-0.477933 -0.211247,-0.6778084 -0.04659,-0.1998754 -0.0927,-0.3684318 -0.102477,-0.3745698 -0.03325,-0.020883 -0.20159,0.1507832 -0.372482,0.3798373 -0.2599952,0.3484849 -0.3803832,0.6780593 -0.4083642,1.1179391 -0.02159,0.3393793 -0.01691,0.374346 0.05445,0.4071195 0.04293,0.019719 0.09014,0.035853 0.104894,0.035853 0.01476,0 0.1357662,-0.077453 0.2689072,-0.1721171 z m 4.996044,0.1478574 c 0.144265,-0.057385 0.08534,-0.6979306 -0.102749,-1.1169058 -0.10542,-0.2348294 -0.513754,-0.7841401 -0.59443,-0.799655 -0.02527,-0.00486 -0.07377,0.1352427 -0.116819,0.3374063 -0.04049,0.1901436 -0.137491,0.5025061 -0.215567,0.694139 l -0.141957,0.3484233 0.216273,0.078139 c 0.219482,0.079299 0.443646,0.2027725 0.695459,0.3830705 0.148376,0.1062365 0.167947,0.1119155 0.25979,0.075383 z M 13.386355,7.8361924 C 13.567562,7.7399234 13.836789,7.155449 13.994489,6.5159732 14.124968,5.9868806 14.136293,4.8079002 14.014819,4.3990354 13.883195,3.9559705 13.507148,3.2407438 13.219848,2.8870213 l -0.08493,-0.1045709 -0.60421,0.0074 -0.604211,0.0074 -0.114591,0.1468301 c -0.332789,0.4264124 -0.637388,1.0271672 -0.778308,1.535041 -0.174298,0.6281681 -0.104397,1.6604643 0.169092,2.4971202 0.09699,0.2967122 0.363716,0.8006238 0.453694,0.8571395 0.07108,0.044647 0.155857,0.049527 0.860444,0.049527 0.682539,0 0.792738,-0.00592 0.869532,-0.046719 z M 12.134134,5.0649437 c -0.612172,-0.1420626 -0.916594,-0.6120234 -0.63899,-0.986459 0.182898,-0.2466938 0.527223,-0.3892238 0.983885,-0.4072694 0.273573,-0.010811 0.319756,-0.00451 0.573788,0.078287 0.442427,0.1441994 0.676008,0.4122368 0.620102,0.7115761 -0.04655,0.2492285 -0.275807,0.4549421 -0.635639,0.5703531 -0.227238,0.072884 -0.663701,0.089079 -0.903146,0.033512 z m 0.772732,-0.2917819 c 0.479284,-0.1764222 0.458648,-0.6332425 -0.03576,-0.7916694 -0.132283,-0.042389 -0.22698,-0.052678 -0.401256,-0.043601 -0.395306,0.020591 -0.649614,0.1927305 -0.649614,0.4397209 0,0.155976 0.06259,0.2550534 0.219123,0.3468496 0.22615,0.1326236 0.584814,0.1527581 0.867508,0.048699 z m 0.01844,-2.2434025 c 0,-0.00763 -0.04783,-0.061466 -0.106283,-0.1196292 C 12.706442,2.2981136 12.53689,2.2493906 12.41932,2.2952703 c -0.0748,0.02919 -0.259064,0.1896649 -0.259064,0.2256193 0,0.012512 0.172136,0.022748 0.382525,0.022748 0.210389,0 0.382525,-0.00625 0.382525,-0.013878 z"
     id="path1" /><rect
     style="opacity:1;fill:none;fill-opacity:1;stroke:#ffffff;stroke-width:1.15271;stroke-linecap:round;stroke-opacity:1"
     id="rect5"
     width="15.85451"
     height="15.727284"
     x="0.58660185"
     y="0.61594802" /></svg>
